  0
SECTION
  2
ENTITIES
999
DXF created from EnergyPlus
999
Program Version,EnergyPlus, Version 9.4.0-998c4b761e, YMD=2025.12.13 08:27
999
Polygon Action,TRIANGULATE3DFACE
999
Color Scheme,Default
999
Text - True North
  0
TEXT
  8
1
  6
Continuous
 62
  3
 10
      -41.17107
 20
      -52.39264
 30
        0.10000
 40
 .25
  1
True North
 41
 0.0
  7
MONOTXT
210
0.0
220
0.0
230
1.0
999
Text - Building Title
  0
TEXT
  8
1
  6
Continuous
 62
  3
 10
      -44.17107
 20
      -56.39264
 30
        0.10000
 40
 .4
  1
Building - Building
 41
 0.0
  7
MONOTXT
210
0.0
220
0.0
230
1.0
999
North Arrow Stem
  0
3DFACE
  8
1
 62
  3
 10
      -40.17107
 20
      -52.39264
 30
        0.10000
 11
      -40.17107
 21
      -52.39264
 31
        0.00000
 12
      -40.17107
 22
      -55.39264
 32
        0.00000
 13
      -40.17107
 23
      -55.39264
 33
        0.10000
999
North Arrow Head 1
  0
3DFACE
  8
1
 62
  3
 10
      -40.17107
 20
      -52.39264
 30
        0.10000
 11
      -40.17107
 21
      -52.39264
 31
        0.00000
 12
      -40.67107
 22
      -53.25867
 32
        0.00000
 13
      -40.67107
 23
      -53.25867
 33
        0.10000
999
North Arrow Head 2
  0
3DFACE
  8
1
 62
  3
 10
      -40.17107
 20
      -52.39264
 30
        0.10000
 11
      -40.17107
 21
      -52.39264
 31
        0.00000
 12
      -39.67107
 22
      -53.25867
 32
        0.00000
 13
      -39.67107
 23
      -53.25867
 33
        0.10000
999
North Arrow Side 1
  0
3DFACE
  8
1
 62
  3
 10
      -40.67107
 20
      -50.89264
 30
        0.10000
 11
      -40.67107
 21
      -50.89264
 31
        0.00000
 12
      -40.67107
 22
      -51.89264
 32
        0.00000
 13
      -40.67107
 23
      -51.89264
 33
        0.10000
999
North Arrow Side 2
  0
3DFACE
  8
1
 62
  3
 10
      -40.67107
 20
      -50.89264
 30
        0.10000
 11
      -40.67107
 21
      -50.89264
 31
        0.00000
 12
      -39.67107
 22
      -51.89264
 32
        0.00000
 13
      -39.67107
 23
      -51.89264
 33
        0.10000
999
North Arrow Side 3
  0
3DFACE
  8
1
 62
  3
 10
      -39.67107
 20
      -50.89264
 30
        0.10000
 11
      -39.67107
 21
      -50.89264
 31
        0.00000
 12
      -39.67107
 22
      -51.89264
 32
        0.00000
 13
      -39.67107
 23
      -51.89264
 33
        0.10000
999
Zone Names
999
Zone=1:PLANTAX08_OFFICE
999
Building Shading:ALJARAFE CENTER - PLANTA +00 - SURFACE 1 (1)
  0
3DFACE
  8
Building Shading
 62
195
 10
      106.16247
 20
       14.25285
 30
        0.00000
 11
      114.76958
 21
       -7.07000
 31
        0.00000
 12
       98.60645
 22
      -13.58115
 32
        0.00000
 13
       98.60645
 23
      -13.58115
 33
        0.00000
  0
3DFACE
  8
Building Shading
 62
195
 10
      106.16247
 20
       14.25285
 30
        0.00000
 11
       98.60645
 21
      -13.58115
 31
        0.00000
 12
       83.14456
 22
        4.38707
 32
        0.00000
 13
       83.14456
 23
        4.38707
 33
        0.00000
  0
3DFACE
  8
Building Shading
 62
195
 10
      106.16247
 20
       14.25285
 30
        0.00000
 11
       83.14456
 21
        4.38707
 31
        0.00000
 12
       69.62739
 22
       34.56337
 32
        0.00000
 13
       69.62739
 23
       34.56337
 33
        0.00000
  0
3DFACE
  8
Building Shading
 62
195
 10
      106.16247
 20
       14.25285
 30
        0.00000
 11
       69.62739
 21
       34.56337
 31
        0.00000
 12
       95.16968
 22
       33.31055
 32
        0.00000
 13
       95.16968
 23
       33.31055
 33
        0.00000
999
Building Shading:Mir-ALJARAFE CENTER - PLANTA +00 - SURFACE 1 (1)
  0
3DFACE
  8
Building Shading
 62
195
 10
       95.16968
 20
       33.31055
 30
        0.00000
 11
       69.62739
 21
       34.56337
 31
        0.00000
 12
       83.14456
 22
        4.38707
 32
        0.00000
 13
       83.14456
 23
        4.38707
 33
        0.00000
  0
3DFACE
  8
Building Shading
 62
195
 10
       95.16968
 20
       33.31055
 30
        0.00000
 11
       83.14456
 21
        4.38707
 31
        0.00000
 12
       98.60645
 22
      -13.58115
 32
        0.00000
 13
       98.60645
 23
      -13.58115
 33
        0.00000
  0
3DFACE
  8
Building Shading
 62
195
 10
       95.16968
 20
       33.31055
 30
        0.00000
 11
       98.60645
 21
      -13.58115
 31
        0.00000
 12
      114.76958
 22
       -7.07000
 32
        0.00000
 13
      114.76958
 23
       -7.07000
 33
        0.00000
  0
3DFACE
  8
Building Shading
 62
195
 10
       95.16968
 20
       33.31055
 30
        0.00000
 11
      114.76958
 21
       -7.07000
 31
        0.00000
 12
      106.16247
 22
       14.25285
 32
        0.00000
 13
      106.16247
 23
       14.25285
 33
        0.00000
999
Building Shading:ALJARAFE CENTER - PLANTA +00 - SURFACE 2 (2)
  0
3DFACE
  8
Building Shading
 62
195
 10
       73.42321
 20
       71.01144
 30
        0.00000
 11
       95.16968
 21
       33.31055
 31
        0.00000
 12
       12.77441
 22
       37.35193
 32
        0.00000
 13
        7.71500
 23
       50.80087
 33
        0.00000
999
Building Shading:Mir-ALJARAFE CENTER - PLANTA +00 - SURFACE 2 (2)
  0
3DFACE
  8
Building Shading
 62
195
 10
        7.71500
 20
       50.80087
 30
        0.00000
 11
       12.77441
 21
       37.35193
 31
        0.00000
 12
       95.16968
 22
       33.31055
 32
        0.00000
 13
       73.42321
 23
       71.01144
 33
        0.00000
999
Building Shading:ALJARAFE CENTER - PLANTA +00 - SURFACE 3 (3)
  0
3DFACE
  8
Building Shading
 62
195
 10
       36.23039
 20
       -0.42259
 30
        0.00000
 11
       46.79108
 21
      -28.32035
 31
        0.00000
 12
       40.02162
 22
      -35.07664
 32
        0.00000
 13
       23.22090
 23
        9.58305
 33
        0.00000
999
Building Shading:Mir-ALJARAFE CENTER - PLANTA +00 - SURFACE 3 (3)
  0
3DFACE
  8
Building Shading
 62
195
 10
       23.22090
 20
        9.58305
 30
        0.00000
 11
       40.02162
 21
      -35.07664
 31
        0.00000
 12
       46.79108
 22
      -28.32035
 32
        0.00000
 13
       36.23039
 23
       -0.42259
 33
        0.00000
999
Building Shading:ALJARAFE CENTER - PLANTA +00 - SURFACE 4 (4)
  0
3DFACE
  8
Building Shading
 62
195
 10
       26.77872
 20
      -44.32602
 30
        0.00000
 11
       35.04428
 21
      -54.49358
 31
        0.00000
 12
       33.77361
 22
      -55.39264
 32
        0.00000
 13
       27.78227
 23
      -48.60152
 33
        0.00000
999
Building Shading:Mir-ALJARAFE CENTER - PLANTA +00 - SURFACE 4 (4)
  0
3DFACE
  8
Building Shading
 62
195
 10
       27.78227
 20
      -48.60152
 30
        0.00000
 11
       33.77361
 21
      -55.39264
 31
        0.00000
 12
       35.04428
 22
      -54.49358
 32
        0.00000
 13
       26.77872
 23
      -44.32602
 33
        0.00000
999
Building Shading:ALJARAFE CENTER - PLANTA +00 - SURFACE 5 (5)
  0
3DFACE
  8
Building Shading
 62
195
 10
       40.82236
 20
      -37.20517
 30
        0.00000
 11
       44.74428
 21
      -47.63043
 31
        0.00000
 12
       35.04428
 22
      -54.49358
 32
        0.00000
 13
       24.21664
 23
      -41.17439
 33
        0.00000
999
Building Shading:Mir-ALJARAFE CENTER - PLANTA +00 - SURFACE 5 (5)
  0
3DFACE
  8
Building Shading
 62
195
 10
       24.21664
 20
      -41.17439
 30
        0.00000
 11
       35.04428
 21
      -54.49358
 31
        0.00000
 12
       44.74428
 22
      -47.63043
 32
        0.00000
 13
       40.82236
 23
      -37.20517
 33
        0.00000
999
Building Shading:ALJARAFE CENTER - PLANTA +00 - SURFACE 6 (6)
  0
3DFACE
  8
Building Shading
 62
195
 10
       -2.63533
 20
       45.70849
 30
        0.00000
 11
        1.25178
 21
       31.13211
 31
        0.00000
 12
       -0.31964
 22
       27.68815
 32
        0.00000
 13
      -17.32499
 23
       40.76702
 33
        0.00000
999
Building Shading:Mir-ALJARAFE CENTER - PLANTA +00 - SURFACE 6 (6)
  0
3DFACE
  8
Building Shading
 62
195
 10
      -17.32499
 20
       40.76702
 30
        0.00000
 11
       -0.31964
 21
       27.68815
 31
        0.00000
 12
        1.25178
 22
       31.13211
 32
        0.00000
 13
       -2.63533
 23
       45.70849
 33
        0.00000
999
Building Shading:ALJARAFE CENTER - PLANTA +00 - SURFACE 7 (7)
  0
3DFACE
  8
Building Shading
 62
195
 10
        2.81260
 20
       25.27913
 30
        0.00000
 11
       20.18611
 21
      -39.87023
 31
        0.00000
 12
       -4.82175
 22
       -9.53310
 32
        0.00000
 13
       -4.82175
 23
       -9.53310
 33
        0.00000
  0
3DFACE
  8
Building Shading
 62
195
 10
        2.81260
 20
       25.27913
 30
        0.00000
 11
       -4.82175
 21
       -9.53310
 31
        0.00000
 12
      -29.95246
 22
       34.01049
 32
        0.00000
 13
      -29.95246
 23
       34.01049
 33
        0.00000
  0
3DFACE
  8
Building Shading
 62
195
 10
        2.81260
 20
       25.27913
 30
        0.00000
 11
      -29.95246
 21
       34.01049
 31
        0.00000
 12
      -28.62567
 22
       36.96558
 32
        0.00000
 13
      -28.62567
 23
       36.96558
 33
        0.00000
  0
3DFACE
  8
Building Shading
 62
195
 10
        2.81260
 20
       25.27913
 30
        0.00000
 11
      -28.62567
 21
       36.96558
 31
        0.00000
 12
      -17.32499
 22
       40.76702
 32
        0.00000
 13
      -17.32499
 23
       40.76702
 33
        0.00000
999
Building Shading:Mir-ALJARAFE CENTER - PLANTA +00 - SURFACE 7 (7)
  0
3DFACE
  8
Building Shading
 62
195
 10
      -17.32499
 20
       40.76702
 30
        0.00000
 11
      -28.62567
 21
       36.96558
 31
        0.00000
 12
      -29.95246
 22
       34.01049
 32
        0.00000
 13
      -29.95246
 23
       34.01049
 33
        0.00000
  0
3DFACE
  8
Building Shading
 62
195
 10
      -17.32499
 20
       40.76702
 30
        0.00000
 11
      -29.95246
 21
       34.01049
 31
        0.00000
 12
       -4.82175
 22
       -9.53310
 32
        0.00000
 13
       -4.82175
 23
       -9.53310
 33
        0.00000
  0
3DFACE
  8
Building Shading
 62
195
 10
      -17.32499
 20
       40.76702
 30
        0.00000
 11
       -4.82175
 21
       -9.53310
 31
        0.00000
 12
       20.18611
 22
      -39.87023
 32
        0.00000
 13
       20.18611
 23
      -39.87023
 33
        0.00000
  0
3DFACE
  8
Building Shading
 62
195
 10
      -17.32499
 20
       40.76702
 30
        0.00000
 11
       20.18611
 21
      -39.87023
 31
        0.00000
 12
        2.81260
 22
       25.27913
 32
        0.00000
 13
        2.81260
 23
       25.27913
 33
        0.00000
999
Building Shading:ALJARAFE CENTER - PLANTA +00 - SURFACE 8 (8)
  0
3DFACE
  8
Building Shading
 62
195
 10
        8.84983
 20
       47.78424
 30
        0.00000
 11
       12.77441
 21
       37.35193
 31
        0.00000
 12
        4.27987
 22
       37.76858
 32
        0.00000
 13
        4.27987
 23
       37.76858
 33
        0.00000
999
Building Shading:Mir-ALJARAFE CENTER - PLANTA +00 - SURFACE 8 (8)
  0
3DFACE
  8
Building Shading
 62
195
 10
        4.27987
 20
       37.76858
 30
        0.00000
 11
       12.77441
 21
       37.35193
 31
        0.00000
 12
        8.84983
 22
       47.78424
 32
        0.00000
 13
        8.84983
 23
       47.78424
 33
        0.00000
999
Building Shading:ALJARAFE CENTER - PLANTA +00 - SURFACE 9 (9)
  0
3DFACE
  8
Building Shading
 62
195
 10
        7.71500
 20
       50.80087
 30
        0.00000
 11
        8.84983
 21
       47.78424
 31
        0.00000
 12
        1.25178
 22
       31.13211
 32
        0.00000
 13
       -3.10577
 23
       47.47261
 33
        0.00000
999
Building Shading:Mir-ALJARAFE CENTER - PLANTA +00 - SURFACE 9 (9)
  0
3DFACE
  8
Building Shading
 62
195
 10
       -3.10577
 20
       47.47261
 30
        0.00000
 11
        1.25178
 21
       31.13211
 31
        0.00000
 12
        8.84983
 22
       47.78424
 32
        0.00000
 13
        7.71500
 23
       50.80087
 33
        0.00000
999
Building Shading:ALJARAFE CENTER - PLANTA +00 - SURFACE 10 (10)
  0
3DFACE
  8
Building Shading
 62
195
 10
       23.22090
 20
        9.58305
 30
        0.00000
 11
       40.82236
 21
      -37.20517
 31
        0.00000
 12
       21.74765
 22
      -41.76455
 32
        0.00000
 13
       21.74765
 23
      -41.76455
 33
        0.00000
  0
3DFACE
  8
Building Shading
 62
195
 10
       23.22090
 20
        9.58305
 30
        0.00000
 11
       21.74765
 21
      -41.76455
 31
        0.00000
 12
       20.18611
 22
      -39.87023
 32
        0.00000
 13
       20.18611
 23
      -39.87023
 33
        0.00000
  0
3DFACE
  8
Building Shading
 62
195
 10
       23.22090
 20
        9.58305
 30
        0.00000
 11
       20.18611
 21
      -39.87023
 31
        0.00000
 12
        2.81260
 22
       25.27913
 32
        0.00000
 13
        2.81260
 23
       25.27913
 33
        0.00000
999
Building Shading:Mir-ALJARAFE CENTER - PLANTA +00 - SURFACE 10 (10)
  0
3DFACE
  8
Building Shading
 62
195
 10
        2.81260
 20
       25.27913
 30
        0.00000
 11
       20.18611
 21
      -39.87023
 31
        0.00000
 12
       21.74765
 22
      -41.76455
 32
        0.00000
 13
       21.74765
 23
      -41.76455
 33
        0.00000
  0
3DFACE
  8
Building Shading
 62
195
 10
        2.81260
 20
       25.27913
 30
        0.00000
 11
       21.74765
 21
      -41.76455
 31
        0.00000
 12
       40.82236
 22
      -37.20517
 32
        0.00000
 13
       40.82236
 23
      -37.20517
 33
        0.00000
  0
3DFACE
  8
Building Shading
 62
195
 10
        2.81260
 20
       25.27913
 30
        0.00000
 11
       40.82236
 21
      -37.20517
 31
        0.00000
 12
       23.22090
 22
        9.58305
 32
        0.00000
 13
       23.22090
 23
        9.58305
 33
        0.00000
999
Building Shading:ALJARAFE CENTER - PLANTA +00 - SURFACE 11 (11)
  0
3DFACE
  8
Building Shading
 62
195
 10
       -4.82175
 20
       -9.53310
 30
        4.50000
 11
       21.74765
 21
      -41.76455
 31
        4.50000
 12
       24.21664
 22
      -41.17439
 32
        4.50000
 13
       24.21664
 23
      -41.17439
 33
        4.50000
  0
3DFACE
  8
Building Shading
 62
195
 10
       -4.82175
 20
       -9.53310
 30
        4.50000
 11
       24.21664
 21
      -41.17439
 31
        4.50000
 12
      -11.62388
 22
        2.91342
 32
        4.50000
 13
      -11.62388
 23
        2.91342
 33
        4.50000
  0
3DFACE
  8
Building Shading
 62
195
 10
       -4.82175
 20
       -9.53310
 30
        4.50000
 11
      -11.62388
 21
        2.91342
 31
        4.50000
 12
      -11.79221
 22
        2.54451
 32
        4.50000
 13
      -11.79221
 23
        2.54451
 33
        4.50000
999
Building Shading:Mir-ALJARAFE CENTER - PLANTA +00 - SURFACE 11 (11)
  0
3DFACE
  8
Building Shading
 62
195
 10
      -11.79221
 20
        2.54451
 30
        4.50000
 11
      -11.62388
 21
        2.91342
 31
        4.50000
 12
       24.21664
 22
      -41.17439
 32
        4.50000
 13
       24.21664
 23
      -41.17439
 33
        4.50000
  0
3DFACE
  8
Building Shading
 62
195
 10
      -11.79221
 20
        2.54451
 30
        4.50000
 11
       24.21664
 21
      -41.17439
 31
        4.50000
 12
       21.74765
 22
      -41.76455
 32
        4.50000
 13
       21.74765
 23
      -41.76455
 33
        4.50000
  0
3DFACE
  8
Building Shading
 62
195
 10
      -11.79221
 20
        2.54451
 30
        4.50000
 11
       21.74765
 21
      -41.76455
 31
        4.50000
 12
       -4.82175
 22
       -9.53310
 32
        4.50000
 13
       -4.82175
 23
       -9.53310
 33
        4.50000
999
Building Shading:ALJARAFE CENTER - PLANTA +00 - SURFACE 12 (12)
  0
3DFACE
  8
Building Shading
 62
195
 10
      -11.62388
 20
        2.91342
 30
        4.50000
 11
       26.77872
 21
      -44.32602
 31
        4.50000
 12
       12.12135
 22
       18.11975
 32
        4.50000
 13
       -0.31964
 23
       27.68815
 33
        4.50000
999
Building Shading:Mir-ALJARAFE CENTER - PLANTA +00 - SURFACE 12 (12)
  0
3DFACE
  8
Building Shading
 62
195
 10
       -0.31964
 20
       27.68815
 30
        4.50000
 11
       12.12135
 21
       18.11975
 31
        4.50000
 12
       26.77872
 22
      -44.32602
 32
        4.50000
 13
      -11.62388
 23
        2.91342
 33
        4.50000
999
Building Shading:ALJARAFE CENTER - PLANTA +00 - SURFACE 13 (13)
  0
3DFACE
  8
Building Shading
 62
195
 10
      -29.95246
 20
       34.01049
 30
        4.50000
 11
      -11.79221
 21
        2.54451
 31
        4.50000
 12
        4.27987
 22
       37.76858
 32
        4.50000
 13
        4.27987
 23
       37.76858
 33
        4.50000
  0
3DFACE
  8
Building Shading
 62
195
 10
      -29.95246
 20
       34.01049
 30
        4.50000
 11
        4.27987
 21
       37.76858
 31
        4.50000
 12
      -22.35498
 22
       39.07498
 32
        4.50000
 13
      -22.35498
 23
       39.07498
 33
        4.50000
  0
3DFACE
  8
Building Shading
 62
195
 10
      -29.95246
 20
       34.01049
 30
        4.50000
 11
      -22.35498
 21
       39.07498
 31
        4.50000
 12
      -28.62567
 22
       36.96558
 32
        4.50000
 13
      -28.62567
 23
       36.96558
 33
        4.50000
999
Building Shading:Mir-ALJARAFE CENTER - PLANTA +00 - SURFACE 13 (13)
  0
3DFACE
  8
Building Shading
 62
195
 10
      -28.62567
 20
       36.96558
 30
        4.50000
 11
      -22.35498
 21
       39.07498
 31
        4.50000
 12
        4.27987
 22
       37.76858
 32
        4.50000
 13
        4.27987
 23
       37.76858
 33
        4.50000
  0
3DFACE
  8
Building Shading
 62
195
 10
      -28.62567
 20
       36.96558
 30
        4.50000
 11
        4.27987
 21
       37.76858
 31
        4.50000
 12
      -11.79221
 22
        2.54451
 32
        4.50000
 13
      -11.79221
 23
        2.54451
 33
        4.50000
  0
3DFACE
  8
Building Shading
 62
195
 10
      -28.62567
 20
       36.96558
 30
        4.50000
 11
      -11.79221
 21
        2.54451
 31
        4.50000
 12
      -29.95246
 22
       34.01049
 32
        4.50000
 13
      -29.95246
 23
       34.01049
 33
        4.50000
999
Building Shading:ALJARAFE CENTER - PLANTA +00 - SURFACE 14 (14)
  0
3DFACE
  8
Building Shading
 62
195
 10
       -3.10577
 20
       47.47261
 30
        4.50000
 11
       -2.63533
 21
       45.70849
 31
        4.50000
 12
        5.03967
 22
       48.29029
 32
        4.50000
 13
        4.67021
 23
       49.86435
 33
        4.50000
999
Building Shading:Mir-ALJARAFE CENTER - PLANTA +00 - SURFACE 14 (14)
  0
3DFACE
  8
Building Shading
 62
195
 10
        4.67021
 20
       49.86435
 30
        4.50000
 11
        5.03967
 21
       48.29029
 31
        4.50000
 12
       -2.63533
 22
       45.70849
 32
        4.50000
 13
       -3.10577
 23
       47.47261
 33
        4.50000
999
Building Shading:ALJARAFE CENTER - PLANTA +00 - SURFACE 15 (15)
  0
3DFACE
  8
Building Shading
 62
195
 10
        5.03967
 20
       48.29029
 30
        4.50000
 11
      -22.35498
 21
       39.07498
 31
        4.50000
 12
        7.54696
 22
       37.60833
 32
        4.50000
 13
        7.54696
 23
       37.60833
 33
        4.50000
999
Building Shading:Mir-ALJARAFE CENTER - PLANTA +00 - SURFACE 15 (15)
  0
3DFACE
  8
Building Shading
 62
195
 10
        7.54696
 20
       37.60833
 30
        4.50000
 11
      -22.35498
 21
       39.07498
 31
        4.50000
 12
        5.03967
 22
       48.29029
 32
        4.50000
 13
        5.03967
 23
       48.29029
 33
        4.50000
999
Building Shading:ALJARAFE CENTER - PLANTA +00 - SURFACE 16 (16)
  0
3DFACE
  8
Building Shading
 62
195
 10
        4.67021
 20
       49.86435
 30
        4.50000
 11
        7.54696
 21
       37.60833
 31
        4.50000
 12
       69.62739
 22
       34.56337
 32
        4.50000
 13
       55.73752
 23
       65.57166
 33
        4.50000
999
Building Shading:Mir-ALJARAFE CENTER - PLANTA +00 - SURFACE 16 (16)
  0
3DFACE
  8
Building Shading
 62
195
 10
       55.73752
 20
       65.57166
 30
        4.50000
 11
       69.62739
 21
       34.56337
 31
        4.50000
 12
        7.54696
 22
       37.60833
 32
        4.50000
 13
        4.67021
 23
       49.86435
 33
        4.50000
999
Building Shading:ALJARAFE CENTER - PLANTA +00 - SURFACE 17 (17)
  0
3DFACE
  8
Building Shading
 62
195
 10
       83.14456
 20
        4.38707
 30
        4.50000
 11
       98.60645
 21
      -13.58115
 31
        4.50000
 12
      114.76958
 22
       -7.07000
 32
        4.50000
 13
      114.76958
 23
       -7.07000
 33
        4.50000
  0
3DFACE
  8
Building Shading
 62
195
 10
       83.14456
 20
        4.38707
 30
        4.50000
 11
      114.76958
 21
       -7.07000
 31
        4.50000
 12
      106.16247
 22
       14.25285
 32
        4.50000
 13
      106.16247
 23
       14.25285
 33
        4.50000
  0
3DFACE
  8
Building Shading
 62
195
 10
       83.14456
 20
        4.38707
 30
        4.50000
 11
      106.16247
 21
       14.25285
 31
        4.50000
 12
       73.42321
 22
       71.01144
 32
        4.50000
 13
       73.42321
 23
       71.01144
 33
        4.50000
  0
3DFACE
  8
Building Shading
 62
195
 10
       83.14456
 20
        4.38707
 30
        4.50000
 11
       73.42321
 21
       71.01144
 31
        4.50000
 12
       55.73752
 22
       65.57166
 32
        4.50000
 13
       55.73752
 23
       65.57166
 33
        4.50000
999
Building Shading:Mir-ALJARAFE CENTER - PLANTA +00 - SURFACE 17 (17)
  0
3DFACE
  8
Building Shading
 62
195
 10
       55.73752
 20
       65.57166
 30
        4.50000
 11
       73.42321
 21
       71.01144
 31
        4.50000
 12
      106.16247
 22
       14.25285
 32
        4.50000
 13
      106.16247
 23
       14.25285
 33
        4.50000
  0
3DFACE
  8
Building Shading
 62
195
 10
       55.73752
 20
       65.57166
 30
        4.50000
 11
      106.16247
 21
       14.25285
 31
        4.50000
 12
      114.76958
 22
       -7.07000
 32
        4.50000
 13
      114.76958
 23
       -7.07000
 33
        4.50000
  0
3DFACE
  8
Building Shading
 62
195
 10
       55.73752
 20
       65.57166
 30
        4.50000
 11
      114.76958
 21
       -7.07000
 31
        4.50000
 12
       98.60645
 22
      -13.58115
 32
        4.50000
 13
       98.60645
 23
      -13.58115
 33
        4.50000
  0
3DFACE
  8
Building Shading
 62
195
 10
       55.73752
 20
       65.57166
 30
        4.50000
 11
       98.60645
 21
      -13.58115
 31
        4.50000
 12
       83.14456
 22
        4.38707
 32
        4.50000
 13
       83.14456
 23
        4.38707
 33
        4.50000
999
Building Shading:ALJARAFE CENTER - PLANTA +00 - SURFACE 18 (18)
  0
3DFACE
  8
Building Shading
 62
195
 10
       27.78227
 20
      -48.60152
 30
        4.50000
 11
       33.77361
 21
      -55.39264
 31
        4.50000
 12
       44.74428
 22
      -47.63043
 32
        4.50000
 13
       44.74428
 23
      -47.63043
 33
        4.50000
  0
3DFACE
  8
Building Shading
 62
195
 10
       27.78227
 20
      -48.60152
 30
        4.50000
 11
       44.74428
 21
      -47.63043
 31
        4.50000
 12
       40.02162
 22
      -35.07664
 32
        4.50000
 13
       40.02162
 23
      -35.07664
 33
        4.50000
  0
3DFACE
  8
Building Shading
 62
195
 10
       27.78227
 20
      -48.60152
 30
        4.50000
 11
       40.02162
 21
      -35.07664
 31
        4.50000
 12
       27.53327
 22
      -47.54069
 32
        4.50000
 13
       27.53327
 23
      -47.54069
 33
        4.50000
999
Building Shading:Mir-ALJARAFE CENTER - PLANTA +00 - SURFACE 18 (18)
  0
3DFACE
  8
Building Shading
 62
195
 10
       27.53327
 20
      -47.54069
 30
        4.50000
 11
       40.02162
 21
      -35.07664
 31
        4.50000
 12
       44.74428
 22
      -47.63043
 32
        4.50000
 13
       44.74428
 23
      -47.63043
 33
        4.50000
  0
3DFACE
  8
Building Shading
 62
195
 10
       27.53327
 20
      -47.54069
 30
        4.50000
 11
       44.74428
 21
      -47.63043
 31
        4.50000
 12
       33.77361
 22
      -55.39264
 32
        4.50000
 13
       33.77361
 23
      -55.39264
 33
        4.50000
  0
3DFACE
  8
Building Shading
 62
195
 10
       27.53327
 20
      -47.54069
 30
        4.50000
 11
       33.77361
 21
      -55.39264
 31
        4.50000
 12
       27.78227
 22
      -48.60152
 32
        4.50000
 13
       27.78227
 23
      -48.60152
 33
        4.50000
999
Building Shading:ALJARAFE CENTER - PLANTA +00 - SURFACE 19 (19)
  0
3DFACE
  8
Building Shading
 62
195
 10
       12.12135
 20
       18.11975
 30
        4.50000
 11
       27.53327
 21
      -47.54069
 31
        4.50000
 12
       46.79108
 22
      -28.32035
 32
        4.50000
 13
       36.23039
 23
       -0.42259
 33
        4.50000
999
Building Shading:Mir-ALJARAFE CENTER - PLANTA +00 - SURFACE 19 (19)
  0
3DFACE
  8
Building Shading
 62
195
 10
       36.23039
 20
       -0.42259
 30
        4.50000
 11
       46.79108
 21
      -28.32035
 31
        4.50000
 12
       27.53327
 22
      -47.54069
 32
        4.50000
 13
       12.12135
 23
       18.11975
 33
        4.50000
999
Building Shading:ALJARAFE CENTER - PLANTA +00 - SURFACE 20 (20)
  0
3DFACE
  8
Building Shading
 62
195
 10
       44.74428
 20
      -47.63043
 30
        4.50000
 11
       44.74428
 21
      -47.63043
 31
        0.00000
 12
       40.02162
 22
      -35.07664
 32
        0.00000
 13
       40.02162
 23
      -35.07664
 33
        4.50000
999
Building Shading:Mir-ALJARAFE CENTER - PLANTA +00 - SURFACE 20 (20)
  0
3DFACE
  8
Building Shading
 62
195
 10
       40.02162
 20
      -35.07664
 30
        4.50000
 11
       40.02162
 21
      -35.07664
 31
        0.00000
 12
       44.74428
 22
      -47.63043
 32
        0.00000
 13
       44.74428
 23
      -47.63043
 33
        4.50000
999
Building Shading:ALJARAFE CENTER - PLANTA +00 - SURFACE 21 (21)
  0
3DFACE
  8
Building Shading
 62
195
 10
       40.02162
 20
      -35.07664
 30
        4.50000
 11
       40.02162
 21
      -35.07664
 31
        0.00000
 12
       46.79108
 22
      -28.32035
 32
        0.00000
 13
       46.79108
 23
      -28.32035
 33
        4.50000
999
Building Shading:Mir-ALJARAFE CENTER - PLANTA +00 - SURFACE 21 (21)
  0
3DFACE
  8
Building Shading
 62
195
 10
       46.79108
 20
      -28.32035
 30
        4.50000
 11
       46.79108
 21
      -28.32035
 31
        0.00000
 12
       40.02162
 22
      -35.07664
 32
        0.00000
 13
       40.02162
 23
      -35.07664
 33
        4.50000
999
Building Shading:ALJARAFE CENTER - PLANTA +00 - SURFACE 22 (22)
  0
3DFACE
  8
Building Shading
 62
195
 10
       46.79108
 20
      -28.32035
 30
        4.50000
 11
       46.79108
 21
      -28.32035
 31
        0.00000
 12
       36.23039
 22
       -0.42259
 32
        0.00000
 13
       36.23039
 23
       -0.42259
 33
        4.50000
999
Building Shading:Mir-ALJARAFE CENTER - PLANTA +00 - SURFACE 22 (22)
  0
3DFACE
  8
Building Shading
 62
195
 10
       36.23039
 20
       -0.42259
 30
        4.50000
 11
       36.23039
 21
       -0.42259
 31
        0.00000
 12
       46.79108
 22
      -28.32035
 32
        0.00000
 13
       46.79108
 23
      -28.32035
 33
        4.50000
999
Building Shading:ALJARAFE CENTER - PLANTA +00 - SURFACE 23 (23)
  0
3DFACE
  8
Building Shading
 62
195
 10
       36.23039
 20
       -0.42259
 30
        4.50000
 11
       36.23039
 21
       -0.42259
 31
        0.00000
 12
       -0.31964
 22
       27.68815
 32
        0.00000
 13
       -0.31964
 23
       27.68815
 33
        4.50000
999
Building Shading:Mir-ALJARAFE CENTER - PLANTA +00 - SURFACE 23 (23)
  0
3DFACE
  8
Building Shading
 62
195
 10
       -0.31964
 20
       27.68815
 30
        4.50000
 11
       -0.31964
 21
       27.68815
 31
        0.00000
 12
       36.23039
 22
       -0.42259
 32
        0.00000
 13
       36.23039
 23
       -0.42259
 33
        4.50000
999
Building Shading:ALJARAFE CENTER - PLANTA +00 - SURFACE 24 (24)
  0
3DFACE
  8
Building Shading
 62
195
 10
       -0.31964
 20
       27.68815
 30
        4.50000
 11
       -0.31964
 21
       27.68815
 31
        0.00000
 12
        4.27987
 22
       37.76858
 32
        0.00000
 13
        4.27987
 23
       37.76858
 33
        4.50000
999
Building Shading:Mir-ALJARAFE CENTER - PLANTA +00 - SURFACE 24 (24)
  0
3DFACE
  8
Building Shading
 62
195
 10
        4.27987
 20
       37.76858
 30
        4.50000
 11
        4.27987
 21
       37.76858
 31
        0.00000
 12
       -0.31964
 22
       27.68815
 32
        0.00000
 13
       -0.31964
 23
       27.68815
 33
        4.50000
999
Building Shading:ALJARAFE CENTER - PLANTA +00 - SURFACE 25 (25)
  0
3DFACE
  8
Building Shading
 62
195
 10
        4.27987
 20
       37.76858
 30
        4.50000
 11
        4.27987
 21
       37.76858
 31
        0.00000
 12
       69.62739
 22
       34.56337
 32
        0.00000
 13
       69.62739
 23
       34.56337
 33
        4.50000
999
Building Shading:Mir-ALJARAFE CENTER - PLANTA +00 - SURFACE 25 (25)
  0
3DFACE
  8
Building Shading
 62
195
 10
       69.62739
 20
       34.56337
 30
        4.50000
 11
       69.62739
 21
       34.56337
 31
        0.00000
 12
        4.27987
 22
       37.76858
 32
        0.00000
 13
        4.27987
 23
       37.76858
 33
        4.50000
999
Building Shading:ALJARAFE CENTER - PLANTA +00 - SURFACE 26 (26)
  0
3DFACE
  8
Building Shading
 62
195
 10
       69.62739
 20
       34.56337
 30
        4.50000
 11
       69.62739
 21
       34.56337
 31
        0.00000
 12
       83.14456
 22
        4.38707
 32
        0.00000
 13
       83.14456
 23
        4.38707
 33
        4.50000
999
Building Shading:Mir-ALJARAFE CENTER - PLANTA +00 - SURFACE 26 (26)
  0
3DFACE
  8
Building Shading
 62
195
 10
       83.14456
 20
        4.38707
 30
        4.50000
 11
       83.14456
 21
        4.38707
 31
        0.00000
 12
       69.62739
 22
       34.56337
 32
        0.00000
 13
       69.62739
 23
       34.56337
 33
        4.50000
999
Building Shading:ALJARAFE CENTER - PLANTA +00 - SURFACE 27 (27)
  0
3DFACE
  8
Building Shading
 62
195
 10
       83.14456
 20
        4.38707
 30
        4.50000
 11
       83.14456
 21
        4.38707
 31
        0.00000
 12
       98.60645
 22
      -13.58115
 32
        0.00000
 13
       98.60645
 23
      -13.58115
 33
        4.50000
999
Building Shading:Mir-ALJARAFE CENTER - PLANTA +00 - SURFACE 27 (27)
  0
3DFACE
  8
Building Shading
 62
195
 10
       98.60645
 20
      -13.58115
 30
        4.50000
 11
       98.60645
 21
      -13.58115
 31
        0.00000
 12
       83.14456
 22
        4.38707
 32
        0.00000
 13
       83.14456
 23
        4.38707
 33
        4.50000
999
Building Shading:ALJARAFE CENTER - PLANTA +00 - SURFACE 28 (28)
  0
3DFACE
  8
Building Shading
 62
195
 10
       98.60645
 20
      -13.58115
 30
        4.50000
 11
       98.60645
 21
      -13.58115
 31
        0.00000
 12
      114.76958
 22
       -7.07000
 32
        0.00000
 13
      114.76958
 23
       -7.07000
 33
        4.50000
999
Building Shading:Mir-ALJARAFE CENTER - PLANTA +00 - SURFACE 28 (28)
  0
3DFACE
  8
Building Shading
 62
195
 10
      114.76958
 20
       -7.07000
 30
        4.50000
 11
      114.76958
 21
       -7.07000
 31
        0.00000
 12
       98.60645
 22
      -13.58115
 32
        0.00000
 13
       98.60645
 23
      -13.58115
 33
        4.50000
999
Building Shading:ALJARAFE CENTER - PLANTA +00 - SURFACE 29 (29)
  0
3DFACE
  8
Building Shading
 62
195
 10
      114.76958
 20
       -7.07000
 30
        4.50000
 11
      114.76958
 21
       -7.07000
 31
        0.00000
 12
      106.16247
 22
       14.25285
 32
        0.00000
 13
      106.16247
 23
       14.25285
 33
        4.50000
999
Building Shading:Mir-ALJARAFE CENTER - PLANTA +00 - SURFACE 29 (29)
  0
3DFACE
  8
Building Shading
 62
195
 10
      106.16247
 20
       14.25285
 30
        4.50000
 11
      106.16247
 21
       14.25285
 31
        0.00000
 12
      114.76958
 22
       -7.07000
 32
        0.00000
 13
      114.76958
 23
       -7.07000
 33
        4.50000
999
Building Shading:ALJARAFE CENTER - PLANTA +00 - SURFACE 30 (30)
  0
3DFACE
  8
Building Shading
 62
195
 10
      106.16247
 20
       14.25285
 30
        4.50000
 11
      106.16247
 21
       14.25285
 31
        0.00000
 12
       73.42321
 22
       71.01144
 32
        0.00000
 13
       73.42321
 23
       71.01144
 33
        4.50000
999
Building Shading:Mir-ALJARAFE CENTER - PLANTA +00 - SURFACE 30 (30)
  0
3DFACE
  8
Building Shading
 62
195
 10
       73.42321
 20
       71.01144
 30
        4.50000
 11
       73.42321
 21
       71.01144
 31
        0.00000
 12
      106.16247
 22
       14.25285
 32
        0.00000
 13
      106.16247
 23
       14.25285
 33
        4.50000
999
Building Shading:ALJARAFE CENTER - PLANTA +00 - SURFACE 31 (31)
  0
3DFACE
  8
Building Shading
 62
195
 10
       73.42321
 20
       71.01144
 30
        4.50000
 11
       73.42321
 21
       71.01144
 31
        0.00000
 12
       -3.10577
 22
       47.47261
 32
        0.00000
 13
       -3.10577
 23
       47.47261
 33
        4.50000
999
Building Shading:Mir-ALJARAFE CENTER - PLANTA +00 - SURFACE 31 (31)
  0
3DFACE
  8
Building Shading
 62
195
 10
       -3.10577
 20
       47.47261
 30
        4.50000
 11
       -3.10577
 21
       47.47261
 31
        0.00000
 12
       73.42321
 22
       71.01144
 32
        0.00000
 13
       73.42321
 23
       71.01144
 33
        4.50000
999
Building Shading:ALJARAFE CENTER - PLANTA +00 - SURFACE 32 (32)
  0
3DFACE
  8
Building Shading
 62
195
 10
       -3.10577
 20
       47.47261
 30
        4.50000
 11
       -3.10577
 21
       47.47261
 31
        0.00000
 12
       -2.63533
 22
       45.70849
 32
        0.00000
 13
       -2.63533
 23
       45.70849
 33
        4.50000
999
Building Shading:Mir-ALJARAFE CENTER - PLANTA +00 - SURFACE 32 (32)
  0
3DFACE
  8
Building Shading
 62
195
 10
       -2.63533
 20
       45.70849
 30
        4.50000
 11
       -2.63533
 21
       45.70849
 31
        0.00000
 12
       -3.10577
 22
       47.47261
 32
        0.00000
 13
       -3.10577
 23
       47.47261
 33
        4.50000
999
Building Shading:ALJARAFE CENTER - PLANTA +00 - SURFACE 33 (33)
  0
3DFACE
  8
Building Shading
 62
195
 10
       -2.63533
 20
       45.70849
 30
        4.50000
 11
       -2.63533
 21
       45.70849
 31
        0.00000
 12
      -28.62567
 22
       36.96558
 32
        0.00000
 13
      -28.62567
 23
       36.96558
 33
        4.50000
999
Building Shading:Mir-ALJARAFE CENTER - PLANTA +00 - SURFACE 33 (33)
  0
3DFACE
  8
Building Shading
 62
195
 10
      -28.62567
 20
       36.96558
 30
        4.50000
 11
      -28.62567
 21
       36.96558
 31
        0.00000
 12
       -2.63533
 22
       45.70849
 32
        0.00000
 13
       -2.63533
 23
       45.70849
 33
        4.50000
999
Building Shading:ALJARAFE CENTER - PLANTA +00 - SURFACE 34 (34)
  0
3DFACE
  8
Building Shading
 62
195
 10
      -28.62567
 20
       36.96558
 30
        4.50000
 11
      -28.62567
 21
       36.96558
 31
        0.00000
 12
      -29.95246
 22
       34.01049
 32
        0.00000
 13
      -29.95246
 23
       34.01049
 33
        4.50000
999
Building Shading:Mir-ALJARAFE CENTER - PLANTA +00 - SURFACE 34 (34)
  0
3DFACE
  8
Building Shading
 62
195
 10
      -29.95246
 20
       34.01049
 30
        4.50000
 11
      -29.95246
 21
       34.01049
 31
        0.00000
 12
      -28.62567
 22
       36.96558
 32
        0.00000
 13
      -28.62567
 23
       36.96558
 33
        4.50000
999
Building Shading:ALJARAFE CENTER - PLANTA +00 - SURFACE 35 (35)
  0
3DFACE
  8
Building Shading
 62
195
 10
      -29.95246
 20
       34.01049
 30
        4.50000
 11
      -29.95246
 21
       34.01049
 31
        0.00000
 12
       -4.82175
 22
       -9.53310
 32
        0.00000
 13
       -4.82175
 23
       -9.53310
 33
        4.50000
999
Building Shading:Mir-ALJARAFE CENTER - PLANTA +00 - SURFACE 35 (35)
  0
3DFACE
  8
Building Shading
 62
195
 10
       -4.82175
 20
       -9.53310
 30
        4.50000
 11
       -4.82175
 21
       -9.53310
 31
        0.00000
 12
      -29.95246
 22
       34.01049
 32
        0.00000
 13
      -29.95246
 23
       34.01049
 33
        4.50000
999
Building Shading:ALJARAFE CENTER - PLANTA +00 - SURFACE 36 (36)
  0
3DFACE
  8
Building Shading
 62
195
 10
       -4.82175
 20
       -9.53310
 30
        4.50000
 11
       -4.82175
 21
       -9.53310
 31
        0.00000
 12
       21.74765
 22
      -41.76455
 32
        0.00000
 13
       21.74765
 23
      -41.76455
 33
        4.50000
999
Building Shading:Mir-ALJARAFE CENTER - PLANTA +00 - SURFACE 36 (36)
  0
3DFACE
  8
Building Shading
 62
195
 10
       21.74765
 20
      -41.76455
 30
        4.50000
 11
       21.74765
 21
      -41.76455
 31
        0.00000
 12
       -4.82175
 22
       -9.53310
 32
        0.00000
 13
       -4.82175
 23
       -9.53310
 33
        4.50000
999
Building Shading:ALJARAFE CENTER - PLANTA +00 - SURFACE 37 (37)
  0
3DFACE
  8
Building Shading
 62
195
 10
       21.74765
 20
      -41.76455
 30
        4.50000
 11
       21.74765
 21
      -41.76455
 31
        0.00000
 12
       24.21664
 22
      -41.17439
 32
        0.00000
 13
       24.21664
 23
      -41.17439
 33
        4.50000
999
Building Shading:Mir-ALJARAFE CENTER - PLANTA +00 - SURFACE 37 (37)
  0
3DFACE
  8
Building Shading
 62
195
 10
       24.21664
 20
      -41.17439
 30
        4.50000
 11
       24.21664
 21
      -41.17439
 31
        0.00000
 12
       21.74765
 22
      -41.76455
 32
        0.00000
 13
       21.74765
 23
      -41.76455
 33
        4.50000
999
Building Shading:ALJARAFE CENTER - PLANTA +00 - SURFACE 38 (38)
  0
3DFACE
  8
Building Shading
 62
195
 10
       24.21664
 20
      -41.17439
 30
        4.50000
 11
       24.21664
 21
      -41.17439
 31
        0.00000
 12
       26.77872
 22
      -44.32602
 32
        0.00000
 13
       26.77872
 23
      -44.32602
 33
        4.50000
999
Building Shading:Mir-ALJARAFE CENTER - PLANTA +00 - SURFACE 38 (38)
  0
3DFACE
  8
Building Shading
 62
195
 10
       26.77872
 20
      -44.32602
 30
        4.50000
 11
       26.77872
 21
      -44.32602
 31
        0.00000
 12
       24.21664
 22
      -41.17439
 32
        0.00000
 13
       24.21664
 23
      -41.17439
 33
        4.50000
999
Building Shading:ALJARAFE CENTER - PLANTA +00 - SURFACE 39 (39)
  0
3DFACE
  8
Building Shading
 62
195
 10
       26.77872
 20
      -44.32602
 30
        4.50000
 11
       26.77872
 21
      -44.32602
 31
        0.00000
 12
       27.78227
 22
      -48.60152
 32
        0.00000
 13
       27.78227
 23
      -48.60152
 33
        4.50000
999
Building Shading:Mir-ALJARAFE CENTER - PLANTA +00 - SURFACE 39 (39)
  0
3DFACE
  8
Building Shading
 62
195
 10
       27.78227
 20
      -48.60152
 30
        4.50000
 11
       27.78227
 21
      -48.60152
 31
        0.00000
 12
       26.77872
 22
      -44.32602
 32
        0.00000
 13
       26.77872
 23
      -44.32602
 33
        4.50000
999
Building Shading:ALJARAFE CENTER - PLANTA +00 - SURFACE 40 (40)
  0
3DFACE
  8
Building Shading
 62
195
 10
       27.78227
 20
      -48.60152
 30
        4.50000
 11
       27.78227
 21
      -48.60152
 31
        0.00000
 12
       33.77361
 22
      -55.39264
 32
        0.00000
 13
       33.77361
 23
      -55.39264
 33
        4.50000
999
Building Shading:Mir-ALJARAFE CENTER - PLANTA +00 - SURFACE 40 (40)
  0
3DFACE
  8
Building Shading
 62
195
 10
       33.77361
 20
      -55.39264
 30
        4.50000
 11
       33.77361
 21
      -55.39264
 31
        0.00000
 12
       27.78227
 22
      -48.60152
 32
        0.00000
 13
       27.78227
 23
      -48.60152
 33
        4.50000
999
Building Shading:ALJARAFE CENTER - PLANTA +00 - SURFACE 41 (41)
  0
3DFACE
  8
Building Shading
 62
195
 10
       33.77361
 20
      -55.39264
 30
        4.50000
 11
       33.77361
 21
      -55.39264
 31
        0.00000
 12
       44.74428
 22
      -47.63043
 32
        0.00000
 13
       44.74428
 23
      -47.63043
 33
        4.50000
999
Building Shading:Mir-ALJARAFE CENTER - PLANTA +00 - SURFACE 41 (41)
  0
3DFACE
  8
Building Shading
 62
195
 10
       44.74428
 20
      -47.63043
 30
        4.50000
 11
       44.74428
 21
      -47.63043
 31
        0.00000
 12
       33.77361
 22
      -55.39264
 32
        0.00000
 13
       33.77361
 23
      -55.39264
 33
        4.50000
999
Building Shading:ALJARAFE CENTER - PLANTA +01 - SURFACE 1 (42)
  0
3DFACE
  8
Building Shading
 62
195
 10
       36.23039
 20
       -0.42259
 30
        4.50000
 11
       46.79108
 21
      -28.32035
 31
        4.50000
 12
       40.02162
 22
      -35.07664
 32
        4.50000
 13
       23.22090
 23
        9.58305
 33
        4.50000
999
Building Shading:Mir-ALJARAFE CENTER - PLANTA +01 - SURFACE 1 (42)
  0
3DFACE
  8
Building Shading
 62
195
 10
       23.22090
 20
        9.58305
 30
        4.50000
 11
       40.02162
 21
      -35.07664
 31
        4.50000
 12
       46.79108
 22
      -28.32035
 32
        4.50000
 13
       36.23039
 23
       -0.42259
 33
        4.50000
999
Building Shading:ALJARAFE CENTER - PLANTA +01 - SURFACE 2 (43)
  0
3DFACE
  8
Building Shading
 62
195
 10
       26.77872
 20
      -44.32602
 30
        4.50000
 11
       35.04428
 21
      -54.49358
 31
        4.50000
 12
       33.77361
 22
      -55.39264
 32
        4.50000
 13
       27.78227
 23
      -48.60152
 33
        4.50000
999
Building Shading:Mir-ALJARAFE CENTER - PLANTA +01 - SURFACE 2 (43)
  0
3DFACE
  8
Building Shading
 62
195
 10
       27.78227
 20
      -48.60152
 30
        4.50000
 11
       33.77361
 21
      -55.39264
 31
        4.50000
 12
       35.04428
 22
      -54.49358
 32
        4.50000
 13
       26.77872
 23
      -44.32602
 33
        4.50000
999
Building Shading:ALJARAFE CENTER - PLANTA +01 - SURFACE 3 (44)
  0
3DFACE
  8
Building Shading
 62
195
 10
       31.04778
 20
      -11.22236
 30
        4.50000
 11
       44.74428
 21
      -47.63043
 31
        4.50000
 12
       35.04428
 22
      -54.49358
 32
        4.50000
 13
       35.04428
 23
      -54.49358
 33
        4.50000
  0
3DFACE
  8
Building Shading
 62
195
 10
       31.04778
 20
      -11.22236
 30
        4.50000
 11
       35.04428
 21
      -54.49358
 31
        4.50000
 12
       24.13496
 22
      -41.07391
 32
        4.50000
 13
       24.13496
 23
      -41.07391
 33
        4.50000
  0
3DFACE
  8
Building Shading
 62
195
 10
       31.04778
 20
      -11.22236
 30
        4.50000
 11
       24.13496
 21
      -41.07391
 31
        4.50000
 12
       11.97116
 22
      -19.98598
 32
        4.50000
 13
       11.97116
 23
      -19.98598
 33
        4.50000
999
Building Shading:Mir-ALJARAFE CENTER - PLANTA +01 - SURFACE 3 (44)
  0
3DFACE
  8
Building Shading
 62
195
 10
       11.97116
 20
      -19.98598
 30
        4.50000
 11
       24.13496
 21
      -41.07391
 31
        4.50000
 12
       35.04428
 22
      -54.49358
 32
        4.50000
 13
       35.04428
 23
      -54.49358
 33
        4.50000
  0
3DFACE
  8
Building Shading
 62
195
 10
       11.97116
 20
      -19.98598
 30
        4.50000
 11
       35.04428
 21
      -54.49358
 31
        4.50000
 12
       44.74428
 22
      -47.63043
 32
        4.50000
 13
       44.74428
 23
      -47.63043
 33
        4.50000
  0
3DFACE
  8
Building Shading
 62
195
 10
       11.97116
 20
      -19.98598
 30
        4.50000
 11
       44.74428
 21
      -47.63043
 31
        4.50000
 12
       31.04778
 22
      -11.22236
 32
        4.50000
 13
       31.04778
 23
      -11.22236
 33
        4.50000
999
Building Shading:ALJARAFE CENTER - PLANTA +01 - SURFACE 4 (45)
  0
3DFACE
  8
Building Shading
 62
195
 10
       23.22090
 20
        9.58305
 30
        4.50000
 11
       31.04778
 21
      -11.22236
 31
        4.50000
 12
        8.25023
 22
      -21.69534
 32
        4.50000
 13
        8.25023
 23
      -21.69534
 33
        4.50000
  0
3DFACE
  8
Building Shading
 62
195
 10
       23.22090
 20
        9.58305
 30
        4.50000
 11
        8.25023
 21
      -21.69534
 31
        4.50000
 12
       -2.95102
 22
       -8.02877
 32
        4.50000
 13
       -2.95102
 23
       -8.02877
 33
        4.50000
  0
3DFACE
  8
Building Shading
 62
195
 10
       23.22090
 20
        9.58305
 30
        4.50000
 11
       -2.95102
 21
       -8.02877
 31
        4.50000
 12
      -30.17107
 22
       39.16147
 32
        4.50000
 13
      -30.17107
 23
       39.16147
 33
        4.50000
  0
3DFACE
  8
Building Shading
 62
195
 10
       23.22090
 20
        9.58305
 30
        4.50000
 11
      -30.17107
 21
       39.16147
 31
        4.50000
 12
      -23.47030
 22
       45.49339
 32
        4.50000
 13
      -23.47030
 23
       45.49339
 33
        4.50000
999
Building Shading:Mir-ALJARAFE CENTER - PLANTA +01 - SURFACE 4 (45)
  0
3DFACE
  8
Building Shading
 62
195
 10
      -23.47030
 20
       45.49339
 30
        4.50000
 11
      -30.17107
 21
       39.16147
 31
        4.50000
 12
       -2.95102
 22
       -8.02877
 32
        4.50000
 13
       -2.95102
 23
       -8.02877
 33
        4.50000
  0
3DFACE
  8
Building Shading
 62
195
 10
      -23.47030
 20
       45.49339
 30
        4.50000
 11
       -2.95102
 21
       -8.02877
 31
        4.50000
 12
        8.25023
 22
      -21.69534
 32
        4.50000
 13
        8.25023
 23
      -21.69534
 33
        4.50000
  0
3DFACE
  8
Building Shading
 62
195
 10
      -23.47030
 20
       45.49339
 30
        4.50000
 11
        8.25023
 21
      -21.69534
 31
        4.50000
 12
       31.04778
 22
      -11.22236
 32
        4.50000
 13
       31.04778
 23
      -11.22236
 33
        4.50000
  0
3DFACE
  8
Building Shading
 62
195
 10
      -23.47030
 20
       45.49339
 30
        4.50000
 11
       31.04778
 21
      -11.22236
 31
        4.50000
 12
       23.22090
 22
        9.58305
 32
        4.50000
 13
       23.22090
 23
        9.58305
 33
        4.50000
999
Building Shading:ALJARAFE CENTER - PLANTA +01 - SURFACE 5 (46)
  0
3DFACE
  8
Building Shading
 62
195
 10
       -2.95102
 20
       -8.02877
 30
        9.00000
 11
        8.25023
 21
      -21.69534
 31
        9.00000
 12
       11.97116
 22
      -19.98598
 32
        9.00000
 13
       11.97116
 23
      -19.98598
 33
        9.00000
  0
3DFACE
  8
Building Shading
 62
195
 10
       -2.95102
 20
       -8.02877
 30
        9.00000
 11
       11.97116
 21
      -19.98598
 31
        9.00000
 12
      -24.97700
 22
       44.06963
 32
        9.00000
 13
      -24.97700
 23
       44.06963
 33
        9.00000
  0
3DFACE
  8
Building Shading
 62
195
 10
       -2.95102
 20
       -8.02877
 30
        9.00000
 11
      -24.97700
 21
       44.06963
 31
        9.00000
 12
      -30.17107
 22
       39.16147
 32
        9.00000
 13
      -30.17107
 23
       39.16147
 33
        9.00000
999
Building Shading:Mir-ALJARAFE CENTER - PLANTA +01 - SURFACE 5 (46)
  0
3DFACE
  8
Building Shading
 62
195
 10
      -30.17107
 20
       39.16147
 30
        9.00000
 11
      -24.97700
 21
       44.06963
 31
        9.00000
 12
       11.97116
 22
      -19.98598
 32
        9.00000
 13
       11.97116
 23
      -19.98598
 33
        9.00000
  0
3DFACE
  8
Building Shading
 62
195
 10
      -30.17107
 20
       39.16147
 30
        9.00000
 11
       11.97116
 21
      -19.98598
 31
        9.00000
 12
        8.25023
 22
      -21.69534
 32
        9.00000
 13
        8.25023
 23
      -21.69534
 33
        9.00000
  0
3DFACE
  8
Building Shading
 62
195
 10
      -30.17107
 20
       39.16147
 30
        9.00000
 11
        8.25023
 21
      -21.69534
 31
        9.00000
 12
       -2.95102
 22
       -8.02877
 32
        9.00000
 13
       -2.95102
 23
       -8.02877
 33
        9.00000
999
Building Shading:ALJARAFE CENTER - PLANTA +01 - SURFACE 6 (47)
  0
3DFACE
  8
Building Shading
 62
195
 10
       24.13496
 20
      -41.07391
 30
        9.00000
 11
       26.77872
 21
      -44.32602
 31
        9.00000
 12
       12.12135
 22
       18.11975
 32
        9.00000
 13
       12.12135
 23
       18.11975
 33
        9.00000
  0
3DFACE
  8
Building Shading
 62
195
 10
       24.13496
 20
      -41.07391
 30
        9.00000
 11
       12.12135
 21
       18.11975
 31
        9.00000
 12
      -23.47030
 22
       45.49339
 32
        9.00000
 13
      -23.47030
 23
       45.49339
 33
        9.00000
  0
3DFACE
  8
Building Shading
 62
195
 10
       24.13496
 20
      -41.07391
 30
        9.00000
 11
      -23.47030
 21
       45.49339
 31
        9.00000
 12
      -24.97700
 22
       44.06963
 32
        9.00000
 13
      -24.97700
 23
       44.06963
 33
        9.00000
999
Building Shading:Mir-ALJARAFE CENTER - PLANTA +01 - SURFACE 6 (47)
  0
3DFACE
  8
Building Shading
 62
195
 10
      -24.97700
 20
       44.06963
 30
        9.00000
 11
      -23.47030
 21
       45.49339
 31
        9.00000
 12
       12.12135
 22
       18.11975
 32
        9.00000
 13
       12.12135
 23
       18.11975
 33
        9.00000
  0
3DFACE
  8
Building Shading
 62
195
 10
      -24.97700
 20
       44.06963
 30
        9.00000
 11
       12.12135
 21
       18.11975
 31
        9.00000
 12
       26.77872
 22
      -44.32602
 32
        9.00000
 13
       26.77872
 23
      -44.32602
 33
        9.00000
  0
3DFACE
  8
Building Shading
 62
195
 10
      -24.97700
 20
       44.06963
 30
        9.00000
 11
       26.77872
 21
      -44.32602
 31
        9.00000
 12
       24.13496
 22
      -41.07391
 32
        9.00000
 13
       24.13496
 23
      -41.07391
 33
        9.00000
999
Building Shading:ALJARAFE CENTER - PLANTA +01 - SURFACE 7 (48)
  0
3DFACE
  8
Building Shading
 62
195
 10
       27.78227
 20
      -48.60152
 30
        9.00000
 11
       33.77361
 21
      -55.39264
 31
        9.00000
 12
       44.74428
 22
      -47.63043
 32
        9.00000
 13
       44.74428
 23
      -47.63043
 33
        9.00000
  0
3DFACE
  8
Building Shading
 62
195
 10
       27.78227
 20
      -48.60152
 30
        9.00000
 11
       44.74428
 21
      -47.63043
 31
        9.00000
 12
       40.02162
 22
      -35.07664
 32
        9.00000
 13
       40.02162
 23
      -35.07664
 33
        9.00000
  0
3DFACE
  8
Building Shading
 62
195
 10
       27.78227
 20
      -48.60152
 30
        9.00000
 11
       40.02162
 21
      -35.07664
 31
        9.00000
 12
       27.53327
 22
      -47.54069
 32
        9.00000
 13
       27.53327
 23
      -47.54069
 33
        9.00000
999
Building Shading:Mir-ALJARAFE CENTER - PLANTA +01 - SURFACE 7 (48)
  0
3DFACE
  8
Building Shading
 62
195
 10
       27.53327
 20
      -47.54069
 30
        9.00000
 11
       40.02162
 21
      -35.07664
 31
        9.00000
 12
       44.74428
 22
      -47.63043
 32
        9.00000
 13
       44.74428
 23
      -47.63043
 33
        9.00000
  0
3DFACE
  8
Building Shading
 62
195
 10
       27.53327
 20
      -47.54069
 30
        9.00000
 11
       44.74428
 21
      -47.63043
 31
        9.00000
 12
       33.77361
 22
      -55.39264
 32
        9.00000
 13
       33.77361
 23
      -55.39264
 33
        9.00000
  0
3DFACE
  8
Building Shading
 62
195
 10
       27.53327
 20
      -47.54069
 30
        9.00000
 11
       33.77361
 21
      -55.39264
 31
        9.00000
 12
       27.78227
 22
      -48.60152
 32
        9.00000
 13
       27.78227
 23
      -48.60152
 33
        9.00000
999
Building Shading:ALJARAFE CENTER - PLANTA +01 - SURFACE 8 (49)
  0
3DFACE
  8
Building Shading
 62
195
 10
       12.12135
 20
       18.11975
 30
        9.00000
 11
       27.53327
 21
      -47.54069
 31
        9.00000
 12
       46.79108
 22
      -28.32035
 32
        9.00000
 13
       36.23039
 23
       -0.42259
 33
        9.00000
999
Building Shading:Mir-ALJARAFE CENTER - PLANTA +01 - SURFACE 8 (49)
  0
3DFACE
  8
Building Shading
 62
195
 10
       36.23039
 20
       -0.42259
 30
        9.00000
 11
       46.79108
 21
      -28.32035
 31
        9.00000
 12
       27.53327
 22
      -47.54069
 32
        9.00000
 13
       12.12135
 23
       18.11975
 33
        9.00000
999
Building Shading:ALJARAFE CENTER - PLANTA +01 - SURFACE 9 (50)
  0
3DFACE
  8
Building Shading
 62
195
 10
       33.77361
 20
      -55.39264
 30
        9.00000
 11
       33.77361
 21
      -55.39264
 31
        4.50000
 12
       44.74428
 22
      -47.63043
 32
        4.50000
 13
       44.74428
 23
      -47.63043
 33
        9.00000
999
Building Shading:Mir-ALJARAFE CENTER - PLANTA +01 - SURFACE 9 (50)
  0
3DFACE
  8
Building Shading
 62
195
 10
       44.74428
 20
      -47.63043
 30
        9.00000
 11
       44.74428
 21
      -47.63043
 31
        4.50000
 12
       33.77361
 22
      -55.39264
 32
        4.50000
 13
       33.77361
 23
      -55.39264
 33
        9.00000
999
Building Shading:ALJARAFE CENTER - PLANTA +01 - SURFACE 10 (51)
  0
3DFACE
  8
Building Shading
 62
195
 10
       44.74428
 20
      -47.63043
 30
        9.00000
 11
       44.74428
 21
      -47.63043
 31
        4.50000
 12
       40.02162
 22
      -35.07664
 32
        4.50000
 13
       40.02162
 23
      -35.07664
 33
        9.00000
999
Building Shading:Mir-ALJARAFE CENTER - PLANTA +01 - SURFACE 10 (51)
  0
3DFACE
  8
Building Shading
 62
195
 10
       40.02162
 20
      -35.07664
 30
        9.00000
 11
       40.02162
 21
      -35.07664
 31
        4.50000
 12
       44.74428
 22
      -47.63043
 32
        4.50000
 13
       44.74428
 23
      -47.63043
 33
        9.00000
999
Building Shading:ALJARAFE CENTER - PLANTA +01 - SURFACE 11 (52)
  0
3DFACE
  8
Building Shading
 62
195
 10
       40.02162
 20
      -35.07664
 30
        9.00000
 11
       40.02162
 21
      -35.07664
 31
        4.50000
 12
       46.79108
 22
      -28.32035
 32
        4.50000
 13
       46.79108
 23
      -28.32035
 33
        9.00000
999
Building Shading:Mir-ALJARAFE CENTER - PLANTA +01 - SURFACE 11 (52)
  0
3DFACE
  8
Building Shading
 62
195
 10
       46.79108
 20
      -28.32035
 30
        9.00000
 11
       46.79108
 21
      -28.32035
 31
        4.50000
 12
       40.02162
 22
      -35.07664
 32
        4.50000
 13
       40.02162
 23
      -35.07664
 33
        9.00000
999
Building Shading:ALJARAFE CENTER - PLANTA +01 - SURFACE 12 (53)
  0
3DFACE
  8
Building Shading
 62
195
 10
       46.79108
 20
      -28.32035
 30
        9.00000
 11
       46.79108
 21
      -28.32035
 31
        4.50000
 12
       36.23039
 22
       -0.42259
 32
        4.50000
 13
       36.23039
 23
       -0.42259
 33
        9.00000
999
Building Shading:Mir-ALJARAFE CENTER - PLANTA +01 - SURFACE 12 (53)
  0
3DFACE
  8
Building Shading
 62
195
 10
       36.23039
 20
       -0.42259
 30
        9.00000
 11
       36.23039
 21
       -0.42259
 31
        4.50000
 12
       46.79108
 22
      -28.32035
 32
        4.50000
 13
       46.79108
 23
      -28.32035
 33
        9.00000
999
Building Shading:ALJARAFE CENTER - PLANTA +01 - SURFACE 13 (54)
  0
3DFACE
  8
Building Shading
 62
195
 10
       36.23039
 20
       -0.42259
 30
        9.00000
 11
       36.23039
 21
       -0.42259
 31
        4.50000
 12
      -23.47030
 22
       45.49339
 32
        4.50000
 13
      -23.47030
 23
       45.49339
 33
        9.00000
999
Building Shading:Mir-ALJARAFE CENTER - PLANTA +01 - SURFACE 13 (54)
  0
3DFACE
  8
Building Shading
 62
195
 10
      -23.47030
 20
       45.49339
 30
        9.00000
 11
      -23.47030
 21
       45.49339
 31
        4.50000
 12
       36.23039
 22
       -0.42259
 32
        4.50000
 13
       36.23039
 23
       -0.42259
 33
        9.00000
999
Building Shading:ALJARAFE CENTER - PLANTA +01 - SURFACE 14 (55)
  0
3DFACE
  8
Building Shading
 62
195
 10
      -23.47030
 20
       45.49339
 30
        9.00000
 11
      -23.47030
 21
       45.49339
 31
        4.50000
 12
      -30.17107
 22
       39.16147
 32
        4.50000
 13
      -30.17107
 23
       39.16147
 33
        9.00000
999
Building Shading:Mir-ALJARAFE CENTER - PLANTA +01 - SURFACE 14 (55)
  0
3DFACE
  8
Building Shading
 62
195
 10
      -30.17107
 20
       39.16147
 30
        9.00000
 11
      -30.17107
 21
       39.16147
 31
        4.50000
 12
      -23.47030
 22
       45.49339
 32
        4.50000
 13
      -23.47030
 23
       45.49339
 33
        9.00000
999
Building Shading:ALJARAFE CENTER - PLANTA +01 - SURFACE 15 (56)
  0
3DFACE
  8
Building Shading
 62
195
 10
      -30.17107
 20
       39.16147
 30
        9.00000
 11
      -30.17107
 21
       39.16147
 31
        4.50000
 12
       -2.95102
 22
       -8.02877
 32
        4.50000
 13
       -2.95102
 23
       -8.02877
 33
        9.00000
999
Building Shading:Mir-ALJARAFE CENTER - PLANTA +01 - SURFACE 15 (56)
  0
3DFACE
  8
Building Shading
 62
195
 10
       -2.95102
 20
       -8.02877
 30
        9.00000
 11
       -2.95102
 21
       -8.02877
 31
        4.50000
 12
      -30.17107
 22
       39.16147
 32
        4.50000
 13
      -30.17107
 23
       39.16147
 33
        9.00000
999
Building Shading:ALJARAFE CENTER - PLANTA +01 - SURFACE 16 (57)
  0
3DFACE
  8
Building Shading
 62
195
 10
       -2.95102
 20
       -8.02877
 30
        9.00000
 11
       -2.95102
 21
       -8.02877
 31
        4.50000
 12
        8.25023
 22
      -21.69534
 32
        4.50000
 13
        8.25023
 23
      -21.69534
 33
        9.00000
999
Building Shading:Mir-ALJARAFE CENTER - PLANTA +01 - SURFACE 16 (57)
  0
3DFACE
  8
Building Shading
 62
195
 10
        8.25023
 20
      -21.69534
 30
        9.00000
 11
        8.25023
 21
      -21.69534
 31
        4.50000
 12
       -2.95102
 22
       -8.02877
 32
        4.50000
 13
       -2.95102
 23
       -8.02877
 33
        9.00000
999
Building Shading:ALJARAFE CENTER - PLANTA +01 - SURFACE 17 (58)
  0
3DFACE
  8
Building Shading
 62
195
 10
        8.25023
 20
      -21.69534
 30
        9.00000
 11
        8.25023
 21
      -21.69534
 31
        4.50000
 12
       11.97116
 22
      -19.98598
 32
        4.50000
 13
       11.97116
 23
      -19.98598
 33
        9.00000
999
Building Shading:Mir-ALJARAFE CENTER - PLANTA +01 - SURFACE 17 (58)
  0
3DFACE
  8
Building Shading
 62
195
 10
       11.97116
 20
      -19.98598
 30
        9.00000
 11
       11.97116
 21
      -19.98598
 31
        4.50000
 12
        8.25023
 22
      -21.69534
 32
        4.50000
 13
        8.25023
 23
      -21.69534
 33
        9.00000
999
Building Shading:ALJARAFE CENTER - PLANTA +01 - SURFACE 18 (59)
  0
3DFACE
  8
Building Shading
 62
195
 10
       11.97116
 20
      -19.98598
 30
        9.00000
 11
       11.97116
 21
      -19.98598
 31
        4.50000
 12
       24.13496
 22
      -41.07391
 32
        4.50000
 13
       24.13496
 23
      -41.07391
 33
        9.00000
999
Building Shading:Mir-ALJARAFE CENTER - PLANTA +01 - SURFACE 18 (59)
  0
3DFACE
  8
Building Shading
 62
195
 10
       24.13496
 20
      -41.07391
 30
        9.00000
 11
       24.13496
 21
      -41.07391
 31
        4.50000
 12
       11.97116
 22
      -19.98598
 32
        4.50000
 13
       11.97116
 23
      -19.98598
 33
        9.00000
999
Building Shading:ALJARAFE CENTER - PLANTA +01 - SURFACE 19 (60)
  0
3DFACE
  8
Building Shading
 62
195
 10
       24.13496
 20
      -41.07391
 30
        9.00000
 11
       24.13496
 21
      -41.07391
 31
        4.50000
 12
       26.77872
 22
      -44.32602
 32
        4.50000
 13
       26.77872
 23
      -44.32602
 33
        9.00000
999
Building Shading:Mir-ALJARAFE CENTER - PLANTA +01 - SURFACE 19 (60)
  0
3DFACE
  8
Building Shading
 62
195
 10
       26.77872
 20
      -44.32602
 30
        9.00000
 11
       26.77872
 21
      -44.32602
 31
        4.50000
 12
       24.13496
 22
      -41.07391
 32
        4.50000
 13
       24.13496
 23
      -41.07391
 33
        9.00000
999
Building Shading:ALJARAFE CENTER - PLANTA +01 - SURFACE 20 (61)
  0
3DFACE
  8
Building Shading
 62
195
 10
       26.77872
 20
      -44.32602
 30
        9.00000
 11
       26.77872
 21
      -44.32602
 31
        4.50000
 12
       27.78227
 22
      -48.60152
 32
        4.50000
 13
       27.78227
 23
      -48.60152
 33
        9.00000
999
Building Shading:Mir-ALJARAFE CENTER - PLANTA +01 - SURFACE 20 (61)
  0
3DFACE
  8
Building Shading
 62
195
 10
       27.78227
 20
      -48.60152
 30
        9.00000
 11
       27.78227
 21
      -48.60152
 31
        4.50000
 12
       26.77872
 22
      -44.32602
 32
        4.50000
 13
       26.77872
 23
      -44.32602
 33
        9.00000
999
Building Shading:ALJARAFE CENTER - PLANTA +01 - SURFACE 21 (62)
  0
3DFACE
  8
Building Shading
 62
195
 10
       27.78227
 20
      -48.60152
 30
        9.00000
 11
       27.78227
 21
      -48.60152
 31
        4.50000
 12
       33.77361
 22
      -55.39264
 32
        4.50000
 13
       33.77361
 23
      -55.39264
 33
        9.00000
999
Building Shading:Mir-ALJARAFE CENTER - PLANTA +01 - SURFACE 21 (62)
  0
3DFACE
  8
Building Shading
 62
195
 10
       33.77361
 20
      -55.39264
 30
        9.00000
 11
       33.77361
 21
      -55.39264
 31
        4.50000
 12
       27.78227
 22
      -48.60152
 32
        4.50000
 13
       27.78227
 23
      -48.60152
 33
        9.00000
999
Building Shading:ALJARAFE CENTER - HOTEL - SURFACE 1 (63)
  0
3DFACE
  8
Building Shading
 62
195
 10
       30.15188
 20
      -20.48427
 30
        9.00000
 11
       34.65757
 21
      -28.29539
 31
        9.00000
 12
       27.31760
 22
      -23.00863
 32
        9.00000
 13
       27.31760
 23
      -23.00863
 33
        9.00000
999
Building Shading:Mir-ALJARAFE CENTER - HOTEL - SURFACE 1 (63)
  0
3DFACE
  8
Building Shading
 62
195
 10
       27.31760
 20
      -23.00863
 30
        9.00000
 11
       34.65757
 21
      -28.29539
 31
        9.00000
 12
       30.15188
 22
      -20.48427
 32
        9.00000
 13
       30.15188
 23
      -20.48427
 33
        9.00000
999
Building Shading:ALJARAFE CENTER - HOTEL - SURFACE 2 (64)
  0
3DFACE
  8
Building Shading
 62
195
 10
       26.77017
 20
      -44.29008
 30
        9.00000
 11
       35.10061
 21
      -54.45371
 31
        9.00000
 12
       33.77361
 22
      -55.39264
 32
        9.00000
 13
       27.77786
 23
      -48.58304
 33
        9.00000
999
Building Shading:Mir-ALJARAFE CENTER - HOTEL - SURFACE 2 (64)
  0
3DFACE
  8
Building Shading
 62
195
 10
       27.77786
 20
      -48.58304
 30
        9.00000
 11
       33.77361
 21
      -55.39264
 31
        9.00000
 12
       35.10061
 22
      -54.45371
 32
        9.00000
 13
       26.77017
 23
      -44.29008
 33
        9.00000
999
Building Shading:ALJARAFE CENTER - HOTEL - SURFACE 3 (65)
  0
3DFACE
  8
Building Shading
 62
195
 10
       38.51580
 20
      -31.07436
 30
        9.00000
 11
       44.74414
 21
      -47.63038
 31
        9.00000
 12
       35.10061
 22
      -54.45371
 32
        9.00000
 13
       35.10061
 23
      -54.45371
 33
        9.00000
  0
3DFACE
  8
Building Shading
 62
195
 10
       38.51580
 20
      -31.07436
 30
        9.00000
 11
       35.10061
 21
      -54.45371
 31
        9.00000
 12
       24.13631
 22
      -41.07663
 32
        9.00000
 13
       24.13631
 23
      -41.07663
 33
        9.00000
  0
3DFACE
  8
Building Shading
 62
195
 10
       38.51580
 20
      -31.07436
 30
        9.00000
 11
       24.13631
 21
      -41.07663
 31
        9.00000
 12
       18.33109
 22
      -31.01251
 32
        9.00000
 13
       18.33109
 23
      -31.01251
 33
        9.00000
  0
3DFACE
  8
Building Shading
 62
195
 10
       38.51580
 20
      -31.07436
 30
        9.00000
 11
       18.33109
 21
      -31.01251
 31
        9.00000
 12
       27.31760
 22
      -23.00863
 32
        9.00000
 13
       27.31760
 23
      -23.00863
 33
        9.00000
999
Building Shading:Mir-ALJARAFE CENTER - HOTEL - SURFACE 3 (65)
  0
3DFACE
  8
Building Shading
 62
195
 10
       27.31760
 20
      -23.00863
 30
        9.00000
 11
       18.33109
 21
      -31.01251
 31
        9.00000
 12
       24.13631
 22
      -41.07663
 32
        9.00000
 13
       24.13631
 23
      -41.07663
 33
        9.00000
  0
3DFACE
  8
Building Shading
 62
195
 10
       27.31760
 20
      -23.00863
 30
        9.00000
 11
       24.13631
 21
      -41.07663
 31
        9.00000
 12
       35.10061
 22
      -54.45371
 32
        9.00000
 13
       35.10061
 23
      -54.45371
 33
        9.00000
  0
3DFACE
  8
Building Shading
 62
195
 10
       27.31760
 20
      -23.00863
 30
        9.00000
 11
       35.10061
 21
      -54.45371
 31
        9.00000
 12
       44.74414
 22
      -47.63038
 32
        9.00000
 13
       44.74414
 23
      -47.63038
 33
        9.00000
  0
3DFACE
  8
Building Shading
 62
195
 10
       27.31760
 20
      -23.00863
 30
        9.00000
 11
       44.74414
 21
      -47.63038
 31
        9.00000
 12
       38.51580
 22
      -31.07436
 32
        9.00000
 13
       38.51580
 23
      -31.07436
 33
        9.00000
999
Building Shading:ALJARAFE CENTER - HOTEL - SURFACE 4 (66)
  0
3DFACE
  8
Building Shading
 62
195
 10
       24.13631
 20
      -41.07663
 30
       57.62000
 11
       26.77017
 21
      -44.29008
 31
       57.62000
 12
       22.73318
 22
      -27.09177
 32
       57.62000
 13
       18.33109
 23
      -31.01251
 33
       57.62000
999
Building Shading:Mir-ALJARAFE CENTER - HOTEL - SURFACE 4 (66)
  0
3DFACE
  8
Building Shading
 62
195
 10
       18.33109
 20
      -31.01251
 30
       57.62000
 11
       22.73318
 21
      -27.09177
 31
       57.62000
 12
       26.77017
 22
      -44.29008
 32
       57.62000
 13
       24.13631
 23
      -41.07663
 33
       57.62000
999
Building Shading:ALJARAFE CENTER - HOTEL - SURFACE 5 (67)
  0
3DFACE
  8
Building Shading
 62
195
 10
       34.65757
 20
      -28.29539
 30
       57.62000
 11
       42.74450
 21
      -42.31499
 31
       57.62000
 12
       38.51580
 22
      -31.07436
 32
       57.62000
 13
       38.51580
 23
      -31.07436
 33
       57.62000
999
Building Shading:Mir-ALJARAFE CENTER - HOTEL - SURFACE 5 (67)
  0
3DFACE
  8
Building Shading
 62
195
 10
       38.51580
 20
      -31.07436
 30
       57.62000
 11
       42.74450
 21
      -42.31499
 31
       57.62000
 12
       34.65757
 22
      -28.29539
 32
       57.62000
 13
       34.65757
 23
      -28.29539
 33
       57.62000
999
Building Shading:ALJARAFE CENTER - HOTEL - SURFACE 6 (68)
  0
3DFACE
  8
Building Shading
 62
195
 10
       27.77786
 20
      -48.58304
 30
       57.62000
 11
       33.77361
 21
      -55.39264
 31
       57.62000
 12
       44.74414
 22
      -47.63038
 32
       57.62000
 13
       44.74414
 23
      -47.63038
 33
       57.62000
  0
3DFACE
  8
Building Shading
 62
195
 10
       27.77786
 20
      -48.58304
 30
       57.62000
 11
       44.74414
 21
      -47.63038
 31
       57.62000
 12
       42.74450
 22
      -42.31499
 32
       57.62000
 13
       42.74450
 23
      -42.31499
 33
       57.62000
  0
3DFACE
  8
Building Shading
 62
195
 10
       27.77786
 20
      -48.58304
 30
       57.62000
 11
       42.74450
 21
      -42.31499
 31
       57.62000
 12
       30.15188
 22
      -20.48427
 32
       57.62000
 13
       30.15188
 23
      -20.48427
 33
       57.62000
  0
3DFACE
  8
Building Shading
 62
195
 10
       27.77786
 20
      -48.58304
 30
       57.62000
 11
       30.15188
 21
      -20.48427
 31
       57.62000
 12
       22.73318
 22
      -27.09177
 32
       57.62000
 13
       22.73318
 23
      -27.09177
 33
       57.62000
999
Building Shading:Mir-ALJARAFE CENTER - HOTEL - SURFACE 6 (68)
  0
3DFACE
  8
Building Shading
 62
195
 10
       22.73318
 20
      -27.09177
 30
       57.62000
 11
       30.15188
 21
      -20.48427
 31
       57.62000
 12
       42.74450
 22
      -42.31499
 32
       57.62000
 13
       42.74450
 23
      -42.31499
 33
       57.62000
  0
3DFACE
  8
Building Shading
 62
195
 10
       22.73318
 20
      -27.09177
 30
       57.62000
 11
       42.74450
 21
      -42.31499
 31
       57.62000
 12
       44.74414
 22
      -47.63038
 32
       57.62000
 13
       44.74414
 23
      -47.63038
 33
       57.62000
  0
3DFACE
  8
Building Shading
 62
195
 10
       22.73318
 20
      -27.09177
 30
       57.62000
 11
       44.74414
 21
      -47.63038
 31
       57.62000
 12
       33.77361
 22
      -55.39264
 32
       57.62000
 13
       33.77361
 23
      -55.39264
 33
       57.62000
  0
3DFACE
  8
Building Shading
 62
195
 10
       22.73318
 20
      -27.09177
 30
       57.62000
 11
       33.77361
 21
      -55.39264
 31
       57.62000
 12
       27.77786
 22
      -48.58304
 32
       57.62000
 13
       27.77786
 23
      -48.58304
 33
       57.62000
999
Building Shading:ALJARAFE CENTER - HOTEL - SURFACE 7 (69)
  0
3DFACE
  8
Building Shading
 62
195
 10
       33.77361
 20
      -55.39264
 30
       57.62000
 11
       33.77361
 21
      -55.39264
 31
        9.00000
 12
       44.74414
 22
      -47.63038
 32
        9.00000
 13
       44.74414
 23
      -47.63038
 33
       57.62000
999
Building Shading:Mir-ALJARAFE CENTER - HOTEL - SURFACE 7 (69)
  0
3DFACE
  8
Building Shading
 62
195
 10
       44.74414
 20
      -47.63038
 30
       57.62000
 11
       44.74414
 21
      -47.63038
 31
        9.00000
 12
       33.77361
 22
      -55.39264
 32
        9.00000
 13
       33.77361
 23
      -55.39264
 33
       57.62000
999
Building Shading:ALJARAFE CENTER - HOTEL - SURFACE 8 (70)
  0
3DFACE
  8
Building Shading
 62
195
 10
       44.74414
 20
      -47.63038
 30
       57.62000
 11
       44.74414
 21
      -47.63038
 31
        9.00000
 12
       38.51580
 22
      -31.07436
 32
        9.00000
 13
       38.51580
 23
      -31.07436
 33
       57.62000
999
Building Shading:Mir-ALJARAFE CENTER - HOTEL - SURFACE 8 (70)
  0
3DFACE
  8
Building Shading
 62
195
 10
       38.51580
 20
      -31.07436
 30
       57.62000
 11
       38.51580
 21
      -31.07436
 31
        9.00000
 12
       44.74414
 22
      -47.63038
 32
        9.00000
 13
       44.74414
 23
      -47.63038
 33
       57.62000
999
Building Shading:ALJARAFE CENTER - HOTEL - SURFACE 9 (71)
  0
3DFACE
  8
Building Shading
 62
195
 10
       38.51580
 20
      -31.07436
 30
       57.62000
 11
       38.51580
 21
      -31.07436
 31
        9.00000
 12
       34.65757
 22
      -28.29539
 32
        9.00000
 13
       34.65757
 23
      -28.29539
 33
       57.62000
999
Building Shading:Mir-ALJARAFE CENTER - HOTEL - SURFACE 9 (71)
  0
3DFACE
  8
Building Shading
 62
195
 10
       34.65757
 20
      -28.29539
 30
       57.62000
 11
       34.65757
 21
      -28.29539
 31
        9.00000
 12
       38.51580
 22
      -31.07436
 32
        9.00000
 13
       38.51580
 23
      -31.07436
 33
       57.62000
999
Building Shading:ALJARAFE CENTER - HOTEL - SURFACE 10 (72)
  0
3DFACE
  8
Building Shading
 62
195
 10
       34.65757
 20
      -28.29539
 30
       57.62000
 11
       34.65757
 21
      -28.29539
 31
        9.00000
 12
       30.15188
 22
      -20.48427
 32
        9.00000
 13
       30.15188
 23
      -20.48427
 33
       57.62000
999
Building Shading:Mir-ALJARAFE CENTER - HOTEL - SURFACE 10 (72)
  0
3DFACE
  8
Building Shading
 62
195
 10
       30.15188
 20
      -20.48427
 30
       57.62000
 11
       30.15188
 21
      -20.48427
 31
        9.00000
 12
       34.65757
 22
      -28.29539
 32
        9.00000
 13
       34.65757
 23
      -28.29539
 33
       57.62000
999
Building Shading:ALJARAFE CENTER - HOTEL - SURFACE 11 (73)
  0
3DFACE
  8
Building Shading
 62
195
 10
       30.15188
 20
      -20.48427
 30
       57.62000
 11
       30.15188
 21
      -20.48427
 31
        9.00000
 12
       18.33109
 22
      -31.01251
 32
        9.00000
 13
       18.33109
 23
      -31.01251
 33
       57.62000
999
Building Shading:Mir-ALJARAFE CENTER - HOTEL - SURFACE 11 (73)
  0
3DFACE
  8
Building Shading
 62
195
 10
       18.33109
 20
      -31.01251
 30
       57.62000
 11
       18.33109
 21
      -31.01251
 31
        9.00000
 12
       30.15188
 22
      -20.48427
 32
        9.00000
 13
       30.15188
 23
      -20.48427
 33
       57.62000
999
Building Shading:ALJARAFE CENTER - HOTEL - SURFACE 12 (74)
  0
3DFACE
  8
Building Shading
 62
195
 10
       18.33109
 20
      -31.01251
 30
       57.62000
 11
       18.33109
 21
      -31.01251
 31
        9.00000
 12
       24.13631
 22
      -41.07663
 32
        9.00000
 13
       24.13631
 23
      -41.07663
 33
       57.62000
999
Building Shading:Mir-ALJARAFE CENTER - HOTEL - SURFACE 12 (74)
  0
3DFACE
  8
Building Shading
 62
195
 10
       24.13631
 20
      -41.07663
 30
       57.62000
 11
       24.13631
 21
      -41.07663
 31
        9.00000
 12
       18.33109
 22
      -31.01251
 32
        9.00000
 13
       18.33109
 23
      -31.01251
 33
       57.62000
999
Building Shading:ALJARAFE CENTER - HOTEL - SURFACE 13 (75)
  0
3DFACE
  8
Building Shading
 62
195
 10
       24.13631
 20
      -41.07663
 30
       57.62000
 11
       24.13631
 21
      -41.07663
 31
        9.00000
 12
       26.77017
 22
      -44.29008
 32
        9.00000
 13
       26.77017
 23
      -44.29008
 33
       57.62000
999
Building Shading:Mir-ALJARAFE CENTER - HOTEL - SURFACE 13 (75)
  0
3DFACE
  8
Building Shading
 62
195
 10
       26.77017
 20
      -44.29008
 30
       57.62000
 11
       26.77017
 21
      -44.29008
 31
        9.00000
 12
       24.13631
 22
      -41.07663
 32
        9.00000
 13
       24.13631
 23
      -41.07663
 33
       57.62000
999
Building Shading:ALJARAFE CENTER - HOTEL - SURFACE 14 (76)
  0
3DFACE
  8
Building Shading
 62
195
 10
       26.77017
 20
      -44.29008
 30
       57.62000
 11
       26.77017
 21
      -44.29008
 31
        9.00000
 12
       27.77786
 22
      -48.58304
 32
        9.00000
 13
       27.77786
 23
      -48.58304
 33
       57.62000
999
Building Shading:Mir-ALJARAFE CENTER - HOTEL - SURFACE 14 (76)
  0
3DFACE
  8
Building Shading
 62
195
 10
       27.77786
 20
      -48.58304
 30
       57.62000
 11
       27.77786
 21
      -48.58304
 31
        9.00000
 12
       26.77017
 22
      -44.29008
 32
        9.00000
 13
       26.77017
 23
      -44.29008
 33
       57.62000
999
Building Shading:ALJARAFE CENTER - HOTEL - SURFACE 15 (77)
  0
3DFACE
  8
Building Shading
 62
195
 10
       27.77786
 20
      -48.58304
 30
       57.62000
 11
       27.77786
 21
      -48.58304
 31
        9.00000
 12
       33.77361
 22
      -55.39264
 32
        9.00000
 13
       33.77361
 23
      -55.39264
 33
       57.62000
999
Building Shading:Mir-ALJARAFE CENTER - HOTEL - SURFACE 15 (77)
  0
3DFACE
  8
Building Shading
 62
195
 10
       33.77361
 20
      -55.39264
 30
       57.62000
 11
       33.77361
 21
      -55.39264
 31
        9.00000
 12
       27.77786
 22
      -48.58304
 32
        9.00000
 13
       27.77786
 23
      -48.58304
 33
       57.62000
999
Building Shading:ALJARAFE CENTER - PLANTA +03-07 - SURFACE 1 (78)
  0
3DFACE
  8
Building Shading
 62
195
 10
       12.87969
 20
       -0.55744
 30
        9.00000
 11
       14.34246
 21
       -4.44565
 31
        9.00000
 12
        1.41333
 22
        7.63808
 32
        9.00000
 13
        7.07394
 23
        9.50657
 33
        9.00000
999
Building Shading:Mir-ALJARAFE CENTER - PLANTA +03-07 - SURFACE 1 (78)
  0
3DFACE
  8
Building Shading
 62
195
 10
        7.07394
 20
        9.50657
 30
        9.00000
 11
        1.41333
 21
        7.63808
 31
        9.00000
 12
       14.34246
 22
       -4.44565
 32
        9.00000
 13
       12.87969
 23
       -0.55744
 33
        9.00000
999
Building Shading:ALJARAFE CENTER - PLANTA +03-07 - SURFACE 2 (79)
  0
3DFACE
  8
Building Shading
 62
195
 10
       -3.45203
 20
       -3.26601
 30
        9.00000
 11
        4.63572
 21
      -17.28576
 31
        9.00000
 12
       -2.97786
 22
       -7.99745
 32
        9.00000
 13
       -2.97786
 23
       -7.99745
 33
        9.00000
999
Building Shading:Mir-ALJARAFE CENTER - PLANTA +03-07 - SURFACE 2 (79)
  0
3DFACE
  8
Building Shading
 62
195
 10
       -2.97786
 20
       -7.99745
 30
        9.00000
 11
        4.63572
 21
      -17.28576
 31
        9.00000
 12
       -3.45203
 22
       -3.26601
 32
        9.00000
 13
       -3.45203
 23
       -3.26601
 33
        9.00000
999
Building Shading:ALJARAFE CENTER - PLANTA +03-07 - SURFACE 3 (80)
  0
3DFACE
  8
Building Shading
 62
195
 10
       17.52935
 20
       -7.42416
 30
        9.00000
 11
       20.45468
 21
      -16.08812
 31
        9.00000
 12
        8.25023
 22
      -21.69534
 32
        9.00000
 13
        8.25023
 23
      -21.69534
 33
        9.00000
  0
3DFACE
  8
Building Shading
 62
195
 10
       17.52935
 20
       -7.42416
 30
        9.00000
 11
        8.25023
 21
      -21.69534
 31
        9.00000
 12
        4.63572
 22
      -17.28576
 32
        9.00000
 13
        4.63572
 23
      -17.28576
 33
        9.00000
  0
3DFACE
  8
Building Shading
 62
195
 10
       17.52935
 20
       -7.42416
 30
        9.00000
 11
        4.63572
 21
      -17.28576
 31
        9.00000
 12
       -7.95793
 22
        4.54476
 32
        9.00000
 13
       -7.95793
 23
        4.54476
 33
        9.00000
  0
3DFACE
  8
Building Shading
 62
195
 10
       17.52935
 20
       -7.42416
 30
        9.00000
 11
       -7.95793
 21
        4.54476
 31
        9.00000
 12
        1.41333
 22
        7.63808
 32
        9.00000
 13
        1.41333
 23
        7.63808
 33
        9.00000
999
Building Shading:Mir-ALJARAFE CENTER - PLANTA +03-07 - SURFACE 3 (80)
  0
3DFACE
  8
Building Shading
 62
195
 10
        1.41333
 20
        7.63808
 30
        9.00000
 11
       -7.95793
 21
        4.54476
 31
        9.00000
 12
        4.63572
 22
      -17.28576
 32
        9.00000
 13
        4.63572
 23
      -17.28576
 33
        9.00000
  0
3DFACE
  8
Building Shading
 62
195
 10
        1.41333
 20
        7.63808
 30
        9.00000
 11
        4.63572
 21
      -17.28576
 31
        9.00000
 12
        8.25023
 22
      -21.69534
 32
        9.00000
 13
        8.25023
 23
      -21.69534
 33
        9.00000
  0
3DFACE
  8
Building Shading
 62
195
 10
        1.41333
 20
        7.63808
 30
        9.00000
 11
        8.25023
 21
      -21.69534
 31
        9.00000
 12
       20.45468
 22
      -16.08812
 32
        9.00000
 13
       20.45468
 23
      -16.08812
 33
        9.00000
  0
3DFACE
  8
Building Shading
 62
195
 10
        1.41333
 20
        7.63808
 30
        9.00000
 11
       20.45468
 21
      -16.08812
 31
        9.00000
 12
       17.52935
 22
       -7.42416
 32
        9.00000
 13
       17.52935
 23
       -7.42416
 33
        9.00000
999
Building Shading:ALJARAFE CENTER - PLANTA +03-07 - SURFACE 4 (81)
  0
3DFACE
  8
Building Shading
 62
195
 10
       -3.45203
 20
       -3.26601
 30
       31.44000
 11
       -3.45203
 21
       -3.26601
 31
        9.00000
 12
       -2.97786
 22
       -7.99745
 32
        9.00000
 13
       -2.97786
 23
       -7.99745
 33
       31.44000
999
Building Shading:Mir-ALJARAFE CENTER - PLANTA +03-07 - SURFACE 4 (81)
  0
3DFACE
  8
Building Shading
 62
195
 10
       -2.97786
 20
       -7.99745
 30
       31.44000
 11
       -2.97786
 21
       -7.99745
 31
        9.00000
 12
       -3.45203
 22
       -3.26601
 32
        9.00000
 13
       -3.45203
 23
       -3.26601
 33
       31.44000
999
Building Shading:ALJARAFE CENTER - PLANTA +03-07 - SURFACE 5 (82)
  0
3DFACE
  8
Building Shading
 62
195
 10
       -2.97786
 20
       -7.99745
 30
       31.44000
 11
       -2.97786
 21
       -7.99745
 31
        9.00000
 12
        8.25023
 22
      -21.69534
 32
        9.00000
 13
        8.25023
 23
      -21.69534
 33
       31.44000
999
Building Shading:Mir-ALJARAFE CENTER - PLANTA +03-07 - SURFACE 5 (82)
  0
3DFACE
  8
Building Shading
 62
195
 10
        8.25023
 20
      -21.69534
 30
       31.44000
 11
        8.25023
 21
      -21.69534
 31
        9.00000
 12
       -2.97786
 22
       -7.99745
 32
        9.00000
 13
       -2.97786
 23
       -7.99745
 33
       31.44000
999
Building Shading:ALJARAFE CENTER - PLANTA +03-07 - SURFACE 6 (83)
  0
3DFACE
  8
Building Shading
 62
195
 10
       -7.95793
 20
        4.54476
 30
       31.44000
 11
       -7.95793
 21
        4.54476
 31
        9.00000
 12
       -3.45203
 22
       -3.26601
 32
        9.00000
 13
       -3.45203
 23
       -3.26601
 33
       31.44000
999
Building Shading:Mir-ALJARAFE CENTER - PLANTA +03-07 - SURFACE 6 (83)
  0
3DFACE
  8
Building Shading
 62
195
 10
       -3.45203
 20
       -3.26601
 30
       31.44000
 11
       -3.45203
 21
       -3.26601
 31
        9.00000
 12
       -7.95793
 22
        4.54476
 32
        9.00000
 13
       -7.95793
 23
        4.54476
 33
       31.44000
999
Building Shading:ALJARAFE CENTER - PLANTA +03-07 - SURFACE 7 (84)
  0
3DFACE
  8
Building Shading
 62
195
 10
        7.07394
 20
        9.50657
 30
       31.44000
 11
        7.07394
 21
        9.50657
 31
        9.00000
 12
       -7.95793
 22
        4.54476
 32
        9.00000
 13
       -7.95793
 23
        4.54476
 33
       31.44000
999
Building Shading:Mir-ALJARAFE CENTER - PLANTA +03-07 - SURFACE 7 (84)
  0
3DFACE
  8
Building Shading
 62
195
 10
       -7.95793
 20
        4.54476
 30
       31.44000
 11
       -7.95793
 21
        4.54476
 31
        9.00000
 12
        7.07394
 22
        9.50657
 32
        9.00000
 13
        7.07394
 23
        9.50657
 33
       31.44000
999
Building Shading:ALJARAFE CENTER - PLANTA +03-07 - SURFACE 8 (85)
  0
3DFACE
  8
Building Shading
 62
195
 10
       12.87969
 20
       -0.55744
 30
       31.44000
 11
       12.87969
 21
       -0.55744
 31
        9.00000
 12
        7.07394
 22
        9.50657
 32
        9.00000
 13
        7.07394
 23
        9.50657
 33
       31.44000
999
Building Shading:Mir-ALJARAFE CENTER - PLANTA +03-07 - SURFACE 8 (85)
  0
3DFACE
  8
Building Shading
 62
195
 10
        7.07394
 20
        9.50657
 30
       31.44000
 11
        7.07394
 21
        9.50657
 31
        9.00000
 12
       12.87969
 22
       -0.55744
 32
        9.00000
 13
       12.87969
 23
       -0.55744
 33
       31.44000
999
Building Shading:ALJARAFE CENTER - PLANTA +03-07 - SURFACE 9 (86)
  0
3DFACE
  8
Building Shading
 62
195
 10
       14.34246
 20
       -4.44565
 30
       31.44000
 11
       14.34246
 21
       -4.44565
 31
        9.00000
 12
       12.87969
 22
       -0.55744
 32
        9.00000
 13
       12.87969
 23
       -0.55744
 33
       31.44000
999
Building Shading:Mir-ALJARAFE CENTER - PLANTA +03-07 - SURFACE 9 (86)
  0
3DFACE
  8
Building Shading
 62
195
 10
       12.87969
 20
       -0.55744
 30
       31.44000
 11
       12.87969
 21
       -0.55744
 31
        9.00000
 12
       14.34246
 22
       -4.44565
 32
        9.00000
 13
       14.34246
 23
       -4.44565
 33
       31.44000
999
Building Shading:ALJARAFE CENTER - PLANTA +03-07 - SURFACE 10 (87)
  0
3DFACE
  8
Building Shading
 62
195
 10
       17.52935
 20
       -7.42416
 30
       31.44000
 11
       17.52935
 21
       -7.42416
 31
        9.00000
 12
       14.34246
 22
       -4.44565
 32
        9.00000
 13
       14.34246
 23
       -4.44565
 33
       31.44000
999
Building Shading:Mir-ALJARAFE CENTER - PLANTA +03-07 - SURFACE 10 (87)
  0
3DFACE
  8
Building Shading
 62
195
 10
       14.34246
 20
       -4.44565
 30
       31.44000
 11
       14.34246
 21
       -4.44565
 31
        9.00000
 12
       17.52935
 22
       -7.42416
 32
        9.00000
 13
       17.52935
 23
       -7.42416
 33
       31.44000
999
Building Shading:ALJARAFE CENTER - PLANTA +03-07 - SURFACE 11 (88)
  0
3DFACE
  8
Building Shading
 62
195
 10
       20.45468
 20
      -16.08812
 30
       31.44000
 11
       20.45468
 21
      -16.08812
 31
        9.00000
 12
       17.52935
 22
       -7.42416
 32
        9.00000
 13
       17.52935
 23
       -7.42416
 33
       31.44000
999
Building Shading:Mir-ALJARAFE CENTER - PLANTA +03-07 - SURFACE 11 (88)
  0
3DFACE
  8
Building Shading
 62
195
 10
       17.52935
 20
       -7.42416
 30
       31.44000
 11
       17.52935
 21
       -7.42416
 31
        9.00000
 12
       20.45468
 22
      -16.08812
 32
        9.00000
 13
       20.45468
 23
      -16.08812
 33
       31.44000
999
Building Shading:ALJARAFE CENTER - PLANTA +03-07 - SURFACE 12 (89)
  0
3DFACE
  8
Building Shading
 62
195
 10
        8.25023
 20
      -21.69534
 30
       31.44000
 11
        8.25023
 21
      -21.69534
 31
        9.00000
 12
       20.45468
 22
      -16.08812
 32
        9.00000
 13
       20.45468
 23
      -16.08812
 33
       31.44000
999
Building Shading:Mir-ALJARAFE CENTER - PLANTA +03-07 - SURFACE 12 (89)
  0
3DFACE
  8
Building Shading
 62
195
 10
       20.45468
 20
      -16.08812
 30
       31.44000
 11
       20.45468
 21
      -16.08812
 31
        9.00000
 12
        8.25023
 22
      -21.69534
 32
        9.00000
 13
        8.25023
 23
      -21.69534
 33
       31.44000
999
Building Shading:ALJARAFE CENTER - PLANTA +03-07 - SURFACE 13 (90)
  0
3DFACE
  8
Building Shading
 62
195
 10
       -7.95793
 20
        4.54476
 30
       31.44000
 11
       -3.45203
 21
       -3.26601
 31
       31.44000
 12
       -4.35404
 22
        5.73436
 32
       31.44000
 13
       -4.35404
 23
        5.73436
 33
       31.44000
999
Building Shading:Mir-ALJARAFE CENTER - PLANTA +03-07 - SURFACE 13 (90)
  0
3DFACE
  8
Building Shading
 62
195
 10
       -4.35404
 20
        5.73436
 30
       31.44000
 11
       -3.45203
 21
       -3.26601
 31
       31.44000
 12
       -7.95793
 22
        4.54476
 32
       31.44000
 13
       -7.95793
 23
        4.54476
 33
       31.44000
999
Building Shading:ALJARAFE CENTER - PLANTA +03-07 - SURFACE 14 (91)
  0
3DFACE
  8
Building Shading
 62
195
 10
       14.34246
 20
       -4.44565
 30
       31.44000
 11
       18.97769
 21
      -16.76670
 31
       31.44000
 12
       20.45468
 22
      -16.08812
 32
       31.44000
 13
       17.52935
 23
       -7.42416
 33
       31.44000
999
Building Shading:Mir-ALJARAFE CENTER - PLANTA +03-07 - SURFACE 14 (91)
  0
3DFACE
  8
Building Shading
 62
195
 10
       17.52935
 20
       -7.42416
 30
       31.44000
 11
       20.45468
 21
      -16.08812
 31
       31.44000
 12
       18.97769
 22
      -16.76670
 32
       31.44000
 13
       14.34246
 23
       -4.44565
 33
       31.44000
999
Building Shading:ALJARAFE CENTER - PLANTA +03-07 - SURFACE 15 (92)
  0
3DFACE
  8
Building Shading
 62
195
 10
       -2.97786
 20
       -7.99745
 30
       31.44000
 11
        8.25023
 21
      -21.69534
 31
       31.44000
 12
       18.97769
 22
      -16.76670
 32
       31.44000
 13
       18.97769
 23
      -16.76670
 33
       31.44000
  0
3DFACE
  8
Building Shading
 62
195
 10
       -2.97786
 20
       -7.99745
 30
       31.44000
 11
       18.97769
 21
      -16.76670
 31
       31.44000
 12
       12.87969
 22
       -0.55744
 32
       31.44000
 13
       12.87969
 23
       -0.55744
 33
       31.44000
  0
3DFACE
  8
Building Shading
 62
195
 10
       -2.97786
 20
       -7.99745
 30
       31.44000
 11
       12.87969
 21
       -0.55744
 31
       31.44000
 12
        7.07394
 22
        9.50657
 32
       31.44000
 13
        7.07394
 23
        9.50657
 33
       31.44000
  0
3DFACE
  8
Building Shading
 62
195
 10
       -2.97786
 20
       -7.99745
 30
       31.44000
 11
        7.07394
 21
        9.50657
 31
       31.44000
 12
       -4.35404
 22
        5.73436
 32
       31.44000
 13
       -4.35404
 23
        5.73436
 33
       31.44000
999
Building Shading:Mir-ALJARAFE CENTER - PLANTA +03-07 - SURFACE 15 (92)
  0
3DFACE
  8
Building Shading
 62
195
 10
       -4.35404
 20
        5.73436
 30
       31.44000
 11
        7.07394
 21
        9.50657
 31
       31.44000
 12
       12.87969
 22
       -0.55744
 32
       31.44000
 13
       12.87969
 23
       -0.55744
 33
       31.44000
  0
3DFACE
  8
Building Shading
 62
195
 10
       -4.35404
 20
        5.73436
 30
       31.44000
 11
       12.87969
 21
       -0.55744
 31
       31.44000
 12
       18.97769
 22
      -16.76670
 32
       31.44000
 13
       18.97769
 23
      -16.76670
 33
       31.44000
  0
3DFACE
  8
Building Shading
 62
195
 10
       -4.35404
 20
        5.73436
 30
       31.44000
 11
       18.97769
 21
      -16.76670
 31
       31.44000
 12
        8.25023
 22
      -21.69534
 32
       31.44000
 13
        8.25023
 23
      -21.69534
 33
       31.44000
  0
3DFACE
  8
Building Shading
 62
195
 10
       -4.35404
 20
        5.73436
 30
       31.44000
 11
        8.25023
 21
      -21.69534
 31
       31.44000
 12
       -2.97786
 22
       -7.99745
 32
       31.44000
 13
       -2.97786
 23
       -7.99745
 33
       31.44000
999
Building Shading:ALJARAFE CENTER - COMPONENT BLOCK 1 - SURFACE 1 (93)
  0
3DFACE
  8
Building Shading
 62
195
 10
       12.87969
 20
       -0.55744
 30
       35.18000
 11
       14.34246
 21
       -4.44565
 31
       35.18000
 12
        1.41333
 22
        7.63808
 32
       35.18000
 13
        7.07394
 23
        9.50657
 33
       35.18000
999
Building Shading:Mir-ALJARAFE CENTER - COMPONENT BLOCK 1 - SURFACE 1 (93)
  0
3DFACE
  8
Building Shading
 62
195
 10
        7.07394
 20
        9.50657
 30
       35.18000
 11
        1.41333
 21
        7.63808
 31
       35.18000
 12
       14.34246
 22
       -4.44565
 32
       35.18000
 13
       12.87969
 23
       -0.55744
 33
       35.18000
999
Building Shading:ALJARAFE CENTER - COMPONENT BLOCK 1 - SURFACE 2 (94)
  0
3DFACE
  8
Building Shading
 62
195
 10
       -3.45203
 20
       -3.26601
 30
       35.18000
 11
        4.63572
 21
      -17.28576
 31
       35.18000
 12
       -2.97786
 22
       -7.99745
 32
       35.18000
 13
       -2.97786
 23
       -7.99745
 33
       35.18000
999
Building Shading:Mir-ALJARAFE CENTER - COMPONENT BLOCK 1 - SURFACE 2 (94)
  0
3DFACE
  8
Building Shading
 62
195
 10
       -2.97786
 20
       -7.99745
 30
       35.18000
 11
        4.63572
 21
      -17.28576
 31
       35.18000
 12
       -3.45203
 22
       -3.26601
 32
       35.18000
 13
       -3.45203
 23
       -3.26601
 33
       35.18000
999
Building Shading:ALJARAFE CENTER - COMPONENT BLOCK 1 - SURFACE 3 (95)
  0
3DFACE
  8
Building Shading
 62
195
 10
       17.52935
 20
       -7.42416
 30
       35.18000
 11
       20.45468
 21
      -16.08812
 31
       35.18000
 12
        8.25023
 22
      -21.69534
 32
       35.18000
 13
        8.25023
 23
      -21.69534
 33
       35.18000
  0
3DFACE
  8
Building Shading
 62
195
 10
       17.52935
 20
       -7.42416
 30
       35.18000
 11
        8.25023
 21
      -21.69534
 31
       35.18000
 12
        4.63572
 22
      -17.28576
 32
       35.18000
 13
        4.63572
 23
      -17.28576
 33
       35.18000
  0
3DFACE
  8
Building Shading
 62
195
 10
       17.52935
 20
       -7.42416
 30
       35.18000
 11
        4.63572
 21
      -17.28576
 31
       35.18000
 12
       -7.95793
 22
        4.54476
 32
       35.18000
 13
       -7.95793
 23
        4.54476
 33
       35.18000
  0
3DFACE
  8
Building Shading
 62
195
 10
       17.52935
 20
       -7.42416
 30
       35.18000
 11
       -7.95793
 21
        4.54476
 31
       35.18000
 12
        1.41333
 22
        7.63808
 32
       35.18000
 13
        1.41333
 23
        7.63808
 33
       35.18000
999
Building Shading:Mir-ALJARAFE CENTER - COMPONENT BLOCK 1 - SURFACE 3 (95)
  0
3DFACE
  8
Building Shading
 62
195
 10
        1.41333
 20
        7.63808
 30
       35.18000
 11
       -7.95793
 21
        4.54476
 31
       35.18000
 12
        4.63572
 22
      -17.28576
 32
       35.18000
 13
        4.63572
 23
      -17.28576
 33
       35.18000
  0
3DFACE
  8
Building Shading
 62
195
 10
        1.41333
 20
        7.63808
 30
       35.18000
 11
        4.63572
 21
      -17.28576
 31
       35.18000
 12
        8.25023
 22
      -21.69534
 32
       35.18000
 13
        8.25023
 23
      -21.69534
 33
       35.18000
  0
3DFACE
  8
Building Shading
 62
195
 10
        1.41333
 20
        7.63808
 30
       35.18000
 11
        8.25023
 21
      -21.69534
 31
       35.18000
 12
       20.45468
 22
      -16.08812
 32
       35.18000
 13
       20.45468
 23
      -16.08812
 33
       35.18000
  0
3DFACE
  8
Building Shading
 62
195
 10
        1.41333
 20
        7.63808
 30
       35.18000
 11
       20.45468
 21
      -16.08812
 31
       35.18000
 12
       17.52935
 22
       -7.42416
 32
       35.18000
 13
       17.52935
 23
       -7.42416
 33
       35.18000
999
Building Shading:ALJARAFE CENTER - COMPONENT BLOCK 1 - SURFACE 4 (96)
  0
3DFACE
  8
Building Shading
 62
195
 10
       -3.45203
 20
       -3.26601
 30
       57.62000
 11
       -3.45203
 21
       -3.26601
 31
       35.18000
 12
       -2.97786
 22
       -7.99745
 32
       35.18000
 13
       -2.97786
 23
       -7.99745
 33
       57.62000
999
Building Shading:Mir-ALJARAFE CENTER - COMPONENT BLOCK 1 - SURFACE 4 (96)
  0
3DFACE
  8
Building Shading
 62
195
 10
       -2.97786
 20
       -7.99745
 30
       57.62000
 11
       -2.97786
 21
       -7.99745
 31
       35.18000
 12
       -3.45203
 22
       -3.26601
 32
       35.18000
 13
       -3.45203
 23
       -3.26601
 33
       57.62000
999
Building Shading:ALJARAFE CENTER - COMPONENT BLOCK 1 - SURFACE 5 (97)
  0
3DFACE
  8
Building Shading
 62
195
 10
       -2.97786
 20
       -7.99745
 30
       57.62000
 11
       -2.97786
 21
       -7.99745
 31
       35.18000
 12
        8.25023
 22
      -21.69534
 32
       35.18000
 13
        8.25023
 23
      -21.69534
 33
       57.62000
999
Building Shading:Mir-ALJARAFE CENTER - COMPONENT BLOCK 1 - SURFACE 5 (97)
  0
3DFACE
  8
Building Shading
 62
195
 10
        8.25023
 20
      -21.69534
 30
       57.62000
 11
        8.25023
 21
      -21.69534
 31
       35.18000
 12
       -2.97786
 22
       -7.99745
 32
       35.18000
 13
       -2.97786
 23
       -7.99745
 33
       57.62000
999
Building Shading:ALJARAFE CENTER - COMPONENT BLOCK 1 - SURFACE 6 (98)
  0
3DFACE
  8
Building Shading
 62
195
 10
       -7.95793
 20
        4.54476
 30
       57.62000
 11
       -7.95793
 21
        4.54476
 31
       35.18000
 12
       -3.45203
 22
       -3.26601
 32
       35.18000
 13
       -3.45203
 23
       -3.26601
 33
       57.62000
999
Building Shading:Mir-ALJARAFE CENTER - COMPONENT BLOCK 1 - SURFACE 6 (98)
  0
3DFACE
  8
Building Shading
 62
195
 10
       -3.45203
 20
       -3.26601
 30
       57.62000
 11
       -3.45203
 21
       -3.26601
 31
       35.18000
 12
       -7.95793
 22
        4.54476
 32
       35.18000
 13
       -7.95793
 23
        4.54476
 33
       57.62000
999
Building Shading:ALJARAFE CENTER - COMPONENT BLOCK 1 - SURFACE 7 (99)
  0
3DFACE
  8
Building Shading
 62
195
 10
        7.07394
 20
        9.50657
 30
       57.62000
 11
        7.07394
 21
        9.50657
 31
       35.18000
 12
       -7.95793
 22
        4.54476
 32
       35.18000
 13
       -7.95793
 23
        4.54476
 33
       57.62000
999
Building Shading:Mir-ALJARAFE CENTER - COMPONENT BLOCK 1 - SURFACE 7 (99)
  0
3DFACE
  8
Building Shading
 62
195
 10
       -7.95793
 20
        4.54476
 30
       57.62000
 11
       -7.95793
 21
        4.54476
 31
       35.18000
 12
        7.07394
 22
        9.50657
 32
       35.18000
 13
        7.07394
 23
        9.50657
 33
       57.62000
999
Building Shading:ALJARAFE CENTER - COMPONENT BLOCK 1 - SURFACE 8 (100)
  0
3DFACE
  8
Building Shading
 62
195
 10
       12.87969
 20
       -0.55744
 30
       57.62000
 11
       12.87969
 21
       -0.55744
 31
       35.18000
 12
        7.07394
 22
        9.50657
 32
       35.18000
 13
        7.07394
 23
        9.50657
 33
       57.62000
999
Building Shading:Mir-ALJARAFE CENTER - COMPONENT BLOCK 1 - SURFACE 8 (100)
  0
3DFACE
  8
Building Shading
 62
195
 10
        7.07394
 20
        9.50657
 30
       57.62000
 11
        7.07394
 21
        9.50657
 31
       35.18000
 12
       12.87969
 22
       -0.55744
 32
       35.18000
 13
       12.87969
 23
       -0.55744
 33
       57.62000
999
Building Shading:ALJARAFE CENTER - COMPONENT BLOCK 1 - SURFACE 9 (101)
  0
3DFACE
  8
Building Shading
 62
195
 10
       14.34246
 20
       -4.44565
 30
       57.62000
 11
       14.34246
 21
       -4.44565
 31
       35.18000
 12
       12.87969
 22
       -0.55744
 32
       35.18000
 13
       12.87969
 23
       -0.55744
 33
       57.62000
999
Building Shading:Mir-ALJARAFE CENTER - COMPONENT BLOCK 1 - SURFACE 9 (101)
  0
3DFACE
  8
Building Shading
 62
195
 10
       12.87969
 20
       -0.55744
 30
       57.62000
 11
       12.87969
 21
       -0.55744
 31
       35.18000
 12
       14.34246
 22
       -4.44565
 32
       35.18000
 13
       14.34246
 23
       -4.44565
 33
       57.62000
999
Building Shading:ALJARAFE CENTER - COMPONENT BLOCK 1 - SURFACE 10 (102)
  0
3DFACE
  8
Building Shading
 62
195
 10
       17.52935
 20
       -7.42416
 30
       57.62000
 11
       17.52935
 21
       -7.42416
 31
       35.18000
 12
       14.34246
 22
       -4.44565
 32
       35.18000
 13
       14.34246
 23
       -4.44565
 33
       57.62000
999
Building Shading:Mir-ALJARAFE CENTER - COMPONENT BLOCK 1 - SURFACE 10 (102)
  0
3DFACE
  8
Building Shading
 62
195
 10
       14.34246
 20
       -4.44565
 30
       57.62000
 11
       14.34246
 21
       -4.44565
 31
       35.18000
 12
       17.52935
 22
       -7.42416
 32
       35.18000
 13
       17.52935
 23
       -7.42416
 33
       57.62000
999
Building Shading:ALJARAFE CENTER - COMPONENT BLOCK 1 - SURFACE 11 (103)
  0
3DFACE
  8
Building Shading
 62
195
 10
       20.45468
 20
      -16.08812
 30
       57.62000
 11
       20.45468
 21
      -16.08812
 31
       35.18000
 12
       17.52935
 22
       -7.42416
 32
       35.18000
 13
       17.52935
 23
       -7.42416
 33
       57.62000
999
Building Shading:Mir-ALJARAFE CENTER - COMPONENT BLOCK 1 - SURFACE 11 (103)
  0
3DFACE
  8
Building Shading
 62
195
 10
       17.52935
 20
       -7.42416
 30
       57.62000
 11
       17.52935
 21
       -7.42416
 31
       35.18000
 12
       20.45468
 22
      -16.08812
 32
       35.18000
 13
       20.45468
 23
      -16.08812
 33
       57.62000
999
Building Shading:ALJARAFE CENTER - COMPONENT BLOCK 1 - SURFACE 12 (104)
  0
3DFACE
  8
Building Shading
 62
195
 10
        8.25023
 20
      -21.69534
 30
       57.62000
 11
        8.25023
 21
      -21.69534
 31
       35.18000
 12
       20.45468
 22
      -16.08812
 32
       35.18000
 13
       20.45468
 23
      -16.08812
 33
       57.62000
999
Building Shading:Mir-ALJARAFE CENTER - COMPONENT BLOCK 1 - SURFACE 12 (104)
  0
3DFACE
  8
Building Shading
 62
195
 10
       20.45468
 20
      -16.08812
 30
       57.62000
 11
       20.45468
 21
      -16.08812
 31
       35.18000
 12
        8.25023
 22
      -21.69534
 32
       35.18000
 13
        8.25023
 23
      -21.69534
 33
       57.62000
999
Building Shading:ALJARAFE CENTER - COMPONENT BLOCK 1 - SURFACE 13 (105)
  0
3DFACE
  8
Building Shading
 62
195
 10
       -7.95793
 20
        4.54476
 30
       57.62000
 11
       -3.45203
 21
       -3.26601
 31
       57.62000
 12
       -4.35404
 22
        5.73436
 32
       57.62000
 13
       -4.35404
 23
        5.73436
 33
       57.62000
999
Building Shading:Mir-ALJARAFE CENTER - COMPONENT BLOCK 1 - SURFACE 13 (105)
  0
3DFACE
  8
Building Shading
 62
195
 10
       -4.35404
 20
        5.73436
 30
       57.62000
 11
       -3.45203
 21
       -3.26601
 31
       57.62000
 12
       -7.95793
 22
        4.54476
 32
       57.62000
 13
       -7.95793
 23
        4.54476
 33
       57.62000
999
Building Shading:ALJARAFE CENTER - COMPONENT BLOCK 1 - SURFACE 14 (106)
  0
3DFACE
  8
Building Shading
 62
195
 10
       14.34246
 20
       -4.44565
 30
       57.62000
 11
       18.97769
 21
      -16.76670
 31
       57.62000
 12
       20.45468
 22
      -16.08812
 32
       57.62000
 13
       17.52935
 23
       -7.42416
 33
       57.62000
999
Building Shading:Mir-ALJARAFE CENTER - COMPONENT BLOCK 1 - SURFACE 14 (106)
  0
3DFACE
  8
Building Shading
 62
195
 10
       17.52935
 20
       -7.42416
 30
       57.62000
 11
       20.45468
 21
      -16.08812
 31
       57.62000
 12
       18.97769
 22
      -16.76670
 32
       57.62000
 13
       14.34246
 23
       -4.44565
 33
       57.62000
999
Building Shading:ALJARAFE CENTER - COMPONENT BLOCK 1 - SURFACE 15 (107)
  0
3DFACE
  8
Building Shading
 62
195
 10
       -2.97786
 20
       -7.99745
 30
       57.62000
 11
        8.25023
 21
      -21.69534
 31
       57.62000
 12
       18.97769
 22
      -16.76670
 32
       57.62000
 13
       18.97769
 23
      -16.76670
 33
       57.62000
  0
3DFACE
  8
Building Shading
 62
195
 10
       -2.97786
 20
       -7.99745
 30
       57.62000
 11
       18.97769
 21
      -16.76670
 31
       57.62000
 12
       12.87969
 22
       -0.55744
 32
       57.62000
 13
       12.87969
 23
       -0.55744
 33
       57.62000
  0
3DFACE
  8
Building Shading
 62
195
 10
       -2.97786
 20
       -7.99745
 30
       57.62000
 11
       12.87969
 21
       -0.55744
 31
       57.62000
 12
        7.07394
 22
        9.50657
 32
       57.62000
 13
        7.07394
 23
        9.50657
 33
       57.62000
  0
3DFACE
  8
Building Shading
 62
195
 10
       -2.97786
 20
       -7.99745
 30
       57.62000
 11
        7.07394
 21
        9.50657
 31
       57.62000
 12
       -4.35404
 22
        5.73436
 32
       57.62000
 13
       -4.35404
 23
        5.73436
 33
       57.62000
999
Building Shading:Mir-ALJARAFE CENTER - COMPONENT BLOCK 1 - SURFACE 15 (107)
  0
3DFACE
  8
Building Shading
 62
195
 10
       -4.35404
 20
        5.73436
 30
       57.62000
 11
        7.07394
 21
        9.50657
 31
       57.62000
 12
       12.87969
 22
       -0.55744
 32
       57.62000
 13
       12.87969
 23
       -0.55744
 33
       57.62000
  0
3DFACE
  8
Building Shading
 62
195
 10
       -4.35404
 20
        5.73436
 30
       57.62000
 11
       12.87969
 21
       -0.55744
 31
       57.62000
 12
       18.97769
 22
      -16.76670
 32
       57.62000
 13
       18.97769
 23
      -16.76670
 33
       57.62000
  0
3DFACE
  8
Building Shading
 62
195
 10
       -4.35404
 20
        5.73436
 30
       57.62000
 11
       18.97769
 21
      -16.76670
 31
       57.62000
 12
        8.25023
 22
      -21.69534
 32
       57.62000
 13
        8.25023
 23
      -21.69534
 33
       57.62000
  0
3DFACE
  8
Building Shading
 62
195
 10
       -4.35404
 20
        5.73436
 30
       57.62000
 11
        8.25023
 21
      -21.69534
 31
       57.62000
 12
       -2.97786
 22
       -7.99745
 32
       57.62000
 13
       -2.97786
 23
       -7.99745
 33
       57.62000
999
PLANTAX08:OFFICE:PLANTAX08:OFFICE_WALL_2_0_0
  0
3DFACE
  8
PLANTAX08_OFFICE
 62
 43
 10
       12.87969
 20
       -0.55744
 30
       35.18000
 11
       12.87969
 21
       -0.55744
 31
       31.44000
 12
        7.07394
 22
        9.50657
 32
       31.44000
 13
        7.07394
 23
        9.50657
 33
       35.18000
999
PLANTAX08:OFFICE:PLANTAX08:OFFICE_WALL_2_0_0_0_0_4_WIN
  0
3DFACE
  8
PLANTAX08_OFFICE
 62
143
 10
        8.76766
 20
        6.57057
 30
       35.13800
 11
        8.76766
 21
        6.57057
 31
       32.52200
 12
        8.30994
 22
        7.36401
 32
       32.52200
 13
        8.30994
 23
        7.36401
 33
       35.13800
999
PLANTAX08:OFFICE:PLANTAX08:OFFICE_WALL_3_0_0
  0
3DFACE
  8
PLANTAX08_OFFICE
 62
 43
 10
        7.07394
 20
        9.50657
 30
       35.18000
 11
        7.07394
 21
        9.50657
 31
       31.44000
 12
       -7.95793
 22
        4.54476
 32
       31.44000
 13
       -7.95793
 23
        4.54476
 33
       35.18000
999
PLANTAX08:OFFICE:PLANTAX08:OFFICE_WALL_3_0_0_0_0_3_WIN
  0
3DFACE
  8
PLANTAX08_OFFICE
 62
143
 10
       -3.55939
 20
        5.99666
 30
       35.13800
 11
       -3.55939
 21
        5.99666
 31
       32.52200
 12
       -4.42923
 22
        5.70954
 32
       32.52200
 13
       -4.42923
 23
        5.70954
 33
       35.13800
999
PLANTAX08:OFFICE:PLANTAX08:OFFICE_WALL_4_0_0
  0
3DFACE
  8
PLANTAX08_OFFICE
 62
 43
 10
       -7.95793
 20
        4.54476
 30
       35.18000
 11
       -7.95793
 21
        4.54476
 31
       31.44000
 12
       -3.45203
 22
       -3.26601
 32
       31.44000
 13
       -3.45203
 23
       -3.26601
 33
       35.18000
999
PLANTAX08:OFFICE:PLANTAX08:OFFICE_WALL_4_0_0_0_0_3_WIN
  0
3DFACE
  8
PLANTAX08_OFFICE
 62
143
 10
       -6.69673
 20
        2.35852
 30
       35.13800
 11
       -6.69673
 21
        2.35852
 31
       32.52200
 12
       -6.23901
 22
        1.56508
 32
       32.52200
 13
       -6.23901
 23
        1.56508
 33
       35.13800
999
PLANTAX08:OFFICE:PLANTAX08:OFFICE_WALL_5_0_0
  0
3DFACE
  8
PLANTAX08_OFFICE
 62
 43
 10
       -3.45203
 20
       -3.26601
 30
       35.18000
 11
       -3.45203
 21
       -3.26601
 31
       31.44000
 12
       -3.44692
 22
       -3.31702
 32
       31.44000
 13
       -3.44692
 23
       -3.31702
 33
       35.18000
999
PLANTAX08:OFFICE:PLANTAX08:OFFICE_PARTITION_6_0_0
  0
3DFACE
  8
PLANTAX08_OFFICE
 62
 43
 10
       -3.44692
 20
       -3.31702
 30
       35.18000
 11
       -3.44692
 21
       -3.31702
 31
       31.44000
 12
       -1.37337
 22
       -2.12082
 32
       31.44000
 13
       -1.37337
 23
       -2.12082
 33
       35.18000
999
PLANTAX08:OFFICE:PLANTAX08:OFFICE_PARTITION_7_0_0
  0
3DFACE
  8
PLANTAX08_OFFICE
 62
 43
 10
       -1.37337
 20
       -2.12082
 30
       35.18000
 11
       -1.37337
 21
       -2.12082
 31
       31.44000
 12
       -1.04855
 22
       -2.68387
 32
       31.44000
 13
       -1.04855
 23
       -2.68387
 33
       35.18000
999
PLANTAX08:OFFICE:PLANTAX08:OFFICE_PARTITION_8_0_0
  0
3DFACE
  8
PLANTAX08_OFFICE
 62
 43
 10
       -1.04855
 20
       -2.68387
 30
       35.18000
 11
       -1.04855
 21
       -2.68387
 31
       31.44000
 12
        1.89841
 22
       -0.98378
 32
       31.44000
 13
        1.89841
 23
       -0.98378
 33
       35.18000
999
PLANTAX08:OFFICE:PLANTAX08:OFFICE_PARTITION_9_0_0
  0
3DFACE
  8
PLANTAX08_OFFICE
 62
 43
 10
        1.89841
 20
       -0.98378
 30
       35.18000
 11
        1.89841
 21
       -0.98378
 31
       31.44000
 12
        1.94838
 22
       -1.07039
 32
       31.44000
 13
        1.94838
 23
       -1.07039
 33
       35.18000
999
PLANTAX08:OFFICE:PLANTAX08:OFFICE_PARTITION_10_0_0
  0
3DFACE
  8
PLANTAX08_OFFICE
 62
 43
 10
        1.94838
 20
       -1.07039
 30
       35.18000
 11
        1.94838
 21
       -1.07039
 31
       31.44000
 12
        2.98781
 22
       -0.47077
 32
       31.44000
 13
        2.98781
 23
       -0.47077
 33
       35.18000
999
PLANTAX08:OFFICE:PLANTAX08:OFFICE_PARTITION_11_0_0
  0
3DFACE
  8
PLANTAX08_OFFICE
 62
 43
 10
        2.98781
 20
       -0.47077
 30
       35.18000
 11
        2.98781
 21
       -0.47077
 31
       31.44000
 12
        0.91873
 22
        3.11587
 32
       31.44000
 13
        0.91873
 23
        3.11587
 33
       35.18000
999
PLANTAX08:OFFICE:PLANTAX08:OFFICE_PARTITION_12_0_0
  0
3DFACE
  8
PLANTAX08_OFFICE
 62
 43
 10
        0.91873
 20
        3.11587
 30
       35.18000
 11
        0.91873
 21
        3.11587
 31
       31.44000
 12
        3.16147
 22
        4.40967
 32
       31.44000
 13
        3.16147
 23
        4.40967
 33
       35.18000
999
PLANTAX08:OFFICE:PLANTAX08:OFFICE_PARTITION_13_0_0
  0
3DFACE
  8
PLANTAX08_OFFICE
 62
 43
 10
        3.16147
 20
        4.40967
 30
       35.18000
 11
        3.16147
 21
        4.40967
 31
       31.44000
 12
        6.55893
 22
       -1.47965
 32
       31.44000
 13
        6.55893
 23
       -1.47965
 33
       35.18000
999
PLANTAX08:OFFICE:PLANTAX08:OFFICE_PARTITION_14_0_0
  0
3DFACE
  8
PLANTAX08_OFFICE
 62
 43
 10
        6.55893
 20
       -1.47965
 30
       35.18000
 11
        6.55893
 21
       -1.47965
 31
       31.44000
 12
        4.31619
 22
       -2.77345
 32
       31.44000
 13
        4.31619
 23
       -2.77345
 33
       35.18000
999
PLANTAX08:OFFICE:PLANTAX08:OFFICE_PARTITION_15_0_0
  0
3DFACE
  8
PLANTAX08_OFFICE
 62
 43
 10
        4.31619
 20
       -2.77345
 30
       35.18000
 11
        4.31619
 21
       -2.77345
 31
       31.44000
 12
        7.41591
 22
       -8.14666
 32
       31.44000
 13
        7.41591
 23
       -8.14666
 33
       35.18000
999
PLANTAX08:OFFICE:PLANTAX08:OFFICE_PARTITION_16_0_0
  0
3DFACE
  8
PLANTAX08_OFFICE
 62
 43
 10
        7.41591
 20
       -8.14666
 30
       35.18000
 11
        7.41591
 21
       -8.14666
 31
       31.44000
 12
        9.62968
 22
       -6.86957
 32
       31.44000
 13
        9.62968
 23
       -6.86957
 33
       35.18000
999
PLANTAX08:OFFICE:PLANTAX08:OFFICE_PARTITION_17_0_0
  0
3DFACE
  8
PLANTAX08_OFFICE
 62
 43
 10
        9.62968
 20
       -6.86957
 30
       35.18000
 11
        9.62968
 21
       -6.86957
 31
       31.44000
 12
       11.84226
 22
      -10.70496
 32
       31.44000
 13
       11.84226
 23
      -10.70496
 33
       35.18000
999
PLANTAX08:OFFICE:PLANTAX08:OFFICE_PARTITION_18_0_0
  0
3DFACE
  8
PLANTAX08_OFFICE
 62
 43
 10
       11.84226
 20
      -10.70496
 30
       35.18000
 11
       11.84226
 21
      -10.70496
 31
       31.44000
 12
        9.62849
 22
      -11.98205
 32
       31.44000
 13
        9.62849
 23
      -11.98205
 33
       35.18000
999
PLANTAX08:OFFICE:PLANTAX08:OFFICE_PARTITION_19_0_0
  0
3DFACE
  8
PLANTAX08_OFFICE
 62
 43
 10
        9.62849
 20
      -11.98205
 30
       35.18000
 11
        9.62849
 21
      -11.98205
 31
       31.44000
 12
        5.64209
 22
      -14.28174
 32
       31.44000
 13
        5.64209
 23
      -14.28174
 33
       35.18000
999
PLANTAX08:OFFICE:PLANTAX08:OFFICE_PARTITION_20_0_0
  0
3DFACE
  8
PLANTAX08_OFFICE
 62
 43
 10
        5.64209
 20
      -14.28174
 30
       35.18000
 11
        5.64209
 21
      -14.28174
 31
       31.44000
 12
        3.28699
 22
      -15.64036
 32
       31.44000
 13
        3.28699
 23
      -15.64036
 33
       35.18000
999
PLANTAX08:OFFICE:PLANTAX08:OFFICE_WALL_21_0_0
  0
3DFACE
  8
PLANTAX08_OFFICE
 62
 43
 10
        3.28699
 20
      -15.64036
 30
       35.18000
 11
        3.28699
 21
      -15.64036
 31
       31.44000
 12
        8.25023
 22
      -21.69534
 32
       31.44000
 13
        8.25023
 23
      -21.69534
 33
       35.18000
999
PLANTAX08:OFFICE:PLANTAX08:OFFICE_WALL_21_0_0_0_0_2_WIN
  0
3DFACE
  8
PLANTAX08_OFFICE
 62
143
 10
        4.12953
 20
      -16.66823
 30
       35.13800
 11
        4.12953
 21
      -16.66823
 31
       32.52200
 12
        4.71022
 22
      -17.37665
 32
       32.52200
 13
        4.71022
 23
      -17.37665
 33
       35.13800
999
PLANTAX08:OFFICE:PLANTAX08:OFFICE_WALL_22_0_0
  0
3DFACE
  8
PLANTAX08_OFFICE
 62
 43
 10
        8.25023
 20
      -21.69534
 30
       35.18000
 11
        8.25023
 21
      -21.69534
 31
       31.44000
 12
       20.45468
 22
      -16.08812
 32
       31.44000
 13
       20.45468
 23
      -16.08812
 33
       35.18000
999
PLANTAX08:OFFICE:PLANTAX08:OFFICE_WALL_23_0_0
  0
3DFACE
  8
PLANTAX08_OFFICE
 62
 43
 10
       20.45468
 20
      -16.08812
 30
       35.18000
 11
       20.45468
 21
      -16.08812
 31
       31.44000
 12
       17.52935
 22
       -7.42416
 32
       31.44000
 13
       17.52935
 23
       -7.42416
 33
       35.18000
999
PLANTAX08:OFFICE:PLANTAX08:OFFICE_WALL_23_0_0_0_0_3_WIN
  0
3DFACE
  8
PLANTAX08_OFFICE
 62
143
 10
       19.58125
 20
      -13.50128
 30
       35.13800
 11
       19.58125
 21
      -13.50128
 31
       32.52200
 12
       19.28822
 22
      -12.63342
 32
       32.52200
 13
       19.28822
 23
      -12.63342
 33
       35.13800
999
PLANTAX08:OFFICE:PLANTAX08:OFFICE_WALL_24_0_0
  0
3DFACE
  8
PLANTAX08_OFFICE
 62
 43
 10
       17.52935
 20
       -7.42416
 30
       35.18000
 11
       17.52935
 21
       -7.42416
 31
       31.44000
 12
       14.34246
 22
       -4.44565
 32
       31.44000
 13
       14.34246
 23
       -4.44565
 33
       35.18000
999
PLANTAX08:OFFICE:PLANTAX08:OFFICE_WALL_24_0_0_0_0_1_WIN
  0
3DFACE
  8
PLANTAX08_OFFICE
 62
143
 10
       16.64966
 20
       -6.60199
 30
       35.13800
 11
       16.64966
 21
       -6.60199
 31
       32.52200
 12
       15.98044
 22
       -5.97653
 32
       32.52200
 13
       15.98044
 23
       -5.97653
 33
       35.13800
999
PLANTAX08:OFFICE:PLANTAX08:OFFICE_WALL_25_0_0
  0
3DFACE
  8
PLANTAX08_OFFICE
 62
 43
 10
       14.34246
 20
       -4.44565
 30
       35.18000
 11
       14.34246
 21
       -4.44565
 31
       31.44000
 12
       12.87969
 22
       -0.55744
 32
       31.44000
 13
       12.87969
 23
       -0.55744
 33
       35.18000
999
PLANTAX08:OFFICE:PLANTAX08:OFFICE_WALL_25_0_0_0_0_0_WIN
  0
3DFACE
  8
PLANTAX08_OFFICE
 62
143
 10
       13.43471
 20
       -2.03276
 30
       35.13800
 11
       13.43471
 21
       -2.03276
 31
       32.52200
 12
       13.11218
 22
       -1.17542
 32
       32.52200
 13
       13.11218
 23
       -1.17542
 33
       35.13800
999
PLANTAX08:OFFICE:PLANTAX08:OFFICE_FLOOR_0_0_0
  0
3DFACE
  8
PLANTAX08_OFFICE
 62
  8
 10
       11.84226
 20
      -10.70496
 30
       31.44000
 11
       16.10151
 21
      -18.08814
 31
       31.44000
 12
        8.25023
 22
      -21.69534
 32
       31.44000
 13
        3.28699
 23
      -15.64036
 33
       31.44000
999
PLANTAX08:OFFICE:PLANTAX08:OFFICE_FLOOR_0_0_1
  0
3DFACE
  8
PLANTAX08_OFFICE
 62
  8
 10
        9.65865
 20
       -6.85286
 30
       31.44000
 11
       16.13203
 21
      -18.07412
 31
       31.44000
 12
       16.10151
 22
      -18.08814
 32
       31.44000
 13
        9.62968
 23
       -6.86957
 33
       31.44000
999
PLANTAX08:OFFICE:PLANTAX08:OFFICE_FLOOR_0_0_2
  0
3DFACE
  8
PLANTAX08_OFFICE
 62
  8
 10
        6.55893
 20
       -1.47965
 30
       31.44000
 11
        9.65865
 21
       -6.85286
 31
       31.44000
 12
        7.41591
 22
       -8.14666
 32
       31.44000
 13
        4.31619
 23
       -2.77345
 33
       31.44000
999
PLANTAX08:OFFICE:PLANTAX08:OFFICE_FLOOR_0_0_3
  0
3DFACE
  8
PLANTAX08_OFFICE
 62
  8
 10
       12.87969
 20
       -0.55744
 30
       31.44000
 11
       14.34246
 21
       -4.44565
 31
       31.44000
 12
        6.80619
 22
        2.59784
 32
       31.44000
 13
        9.99743
 23
        4.43882
 33
       31.44000
999
PLANTAX08:OFFICE:PLANTAX08:OFFICE_FLOOR_0_0_4
  0
3DFACE
  8
PLANTAX08_OFFICE
 62
  8
 10
       17.52935
 20
       -7.42416
 30
       31.44000
 11
       20.45468
 21
      -16.08812
 31
       31.44000
 12
       16.13203
 22
      -18.07412
 32
       31.44000
 13
       16.13203
 23
      -18.07412
 33
       31.44000
  0
3DFACE
  8
PLANTAX08_OFFICE
 62
  8
 10
       17.52935
 20
       -7.42416
 30
       31.44000
 11
       16.13203
 21
      -18.07412
 31
       31.44000
 12
        4.85577
 22
        1.47268
 32
       31.44000
 13
        4.85577
 23
        1.47268
 33
       31.44000
  0
3DFACE
  8
PLANTAX08_OFFICE
 62
  8
 10
       17.52935
 20
       -7.42416
 30
       31.44000
 11
        4.85577
 21
        1.47268
 31
       31.44000
 12
        6.80619
 22
        2.59784
 32
       31.44000
 13
        6.80619
 23
        2.59784
 33
       31.44000
999
PLANTAX08:OFFICE:PLANTAX08:OFFICE_FLOOR_0_0_5
  0
3DFACE
  8
PLANTAX08_OFFICE
 62
  8
 10
        2.93783
 20
       -0.38414
 30
       31.44000
 11
        2.98781
 21
       -0.47077
 31
       31.44000
 12
        1.94838
 22
       -1.07039
 32
       31.44000
 13
        1.89841
 23
       -0.98378
 33
       31.44000
999
PLANTAX08:OFFICE:PLANTAX08:OFFICE_FLOOR_0_0_6
  0
3DFACE
  8
PLANTAX08_OFFICE
 62
  8
 10
        2.61304
 20
        0.17888
 30
       31.44000
 11
        2.93783
 21
       -0.38414
 31
       31.44000
 12
       -1.04855
 22
       -2.68387
 32
       31.44000
 13
       -1.37337
 23
       -2.12082
 33
       31.44000
999
PLANTAX08:OFFICE:PLANTAX08:OFFICE_FLOOR_0_0_8
  0
3DFACE
  8
PLANTAX08_OFFICE
 62
  8
 10
        8.30313
 20
        7.37582
 30
       31.44000
 11
        9.99743
 21
        4.43882
 31
       31.44000
 12
        4.85577
 22
        1.47268
 32
       31.44000
 13
        3.16147
 23
        4.40967
 33
       31.44000
999
PLANTAX08:OFFICE:PLANTAX08:OFFICE_FLOOR_0_0_9
  0
3DFACE
  8
PLANTAX08_OFFICE
 62
  8
 10
        7.07394
 20
        9.50657
 30
       31.44000
 11
        8.30313
 21
        7.37582
 31
       31.44000
 12
        0.91873
 22
        3.11587
 32
       31.44000
 13
       -1.19364
 23
        6.77756
 33
       31.44000
999
PLANTAX08:OFFICE:PLANTAX08:OFFICE_FLOOR_0_0_10
  0
3DFACE
  8
PLANTAX08_OFFICE
 62
  8
 10
       -1.19364
 20
        6.77756
 30
       31.44000
 11
        2.61304
 21
        0.17888
 31
       31.44000
 12
       -3.42868
 22
       -3.30650
 32
       31.44000
 13
       -7.95793
 23
        4.54476
 33
       31.44000
999
PLANTAX08:OFFICE:PLANTAX08:OFFICE_CEILING_1_0_0
  0
3DFACE
  8
PLANTAX08_OFFICE
 62
 15
 10
       14.34246
 20
       -4.44565
 30
       35.18000
 11
       18.97769
 21
      -16.76670
 31
       35.18000
 12
       20.45468
 22
      -16.08812
 32
       35.18000
 13
       17.52935
 23
       -7.42416
 33
       35.18000
999
PLANTAX08:OFFICE:PLANTAX08:OFFICE_CEILING_1_0_1
  0
3DFACE
  8
PLANTAX08_OFFICE
 62
 15
 10
       -5.12298
 20
       -0.36950
 30
       35.18000
 11
       -3.45203
 21
       -3.26601
 31
       35.18000
 12
       -3.81778
 22
        0.38345
 32
       35.18000
 13
       -3.81778
 23
        0.38345
 33
       35.18000
999
PLANTAX08:OFFICE:PLANTAX08:OFFICE_CEILING_1_0_2
  0
3DFACE
  8
PLANTAX08_OFFICE
 62
 15
 10
       -3.81778
 20
        0.38345
 30
       35.18000
 11
       -3.44692
 21
       -3.31702
 31
       35.18000
 12
       -1.37337
 22
       -2.12082
 32
       35.18000
 13
       -3.06767
 23
        0.81617
 33
       35.18000
999
PLANTAX08:OFFICE:PLANTAX08:OFFICE_CEILING_1_0_3
  0
3DFACE
  8
PLANTAX08_OFFICE
 62
 15
 10
       -3.06767
 20
        0.81617
 30
       35.18000
 11
       -1.04855
 21
       -2.68387
 31
       35.18000
 12
        1.89841
 22
       -0.98378
 32
       35.18000
 13
       -0.12071
 23
        2.51623
 33
       35.18000
999
PLANTAX08:OFFICE:PLANTAX08:OFFICE_CEILING_1_0_4
  0
3DFACE
  8
PLANTAX08_OFFICE
 62
 15
 10
       -0.12071
 20
        2.51623
 30
       35.18000
 11
        1.94838
 21
       -1.07039
 31
       35.18000
 12
        2.98781
 22
       -0.47077
 32
       35.18000
 13
        0.91873
 23
        3.11587
 33
       35.18000
999
PLANTAX08:OFFICE:PLANTAX08:OFFICE_CEILING_1_0_5
  0
3DFACE
  8
PLANTAX08_OFFICE
 62
 15
 10
       -7.95793
 20
        4.54476
 30
       35.18000
 11
       -5.12298
 21
       -0.36950
 31
       35.18000
 12
        3.13250
 22
        4.39296
 32
       35.18000
 13
        1.28490
 23
        7.59569
 33
       35.18000
999
PLANTAX08:OFFICE:PLANTAX08:OFFICE_CEILING_1_0_6
  0
3DFACE
  8
PLANTAX08_OFFICE
 62
 15
 10
        4.31619
 20
       -2.77345
 30
       35.18000
 11
        7.41591
 21
       -8.14666
 31
       35.18000
 12
        9.62968
 22
       -6.86957
 32
       35.18000
 13
        6.52996
 23
       -1.49636
 33
       35.18000
999
PLANTAX08:OFFICE:PLANTAX08:OFFICE_CEILING_1_0_7
  0
3DFACE
  8
PLANTAX08_OFFICE
 62
 15
 10
        1.28490
 20
        7.59569
 30
       35.18000
 11
        3.13250
 21
        4.39296
 31
       35.18000
 12
        3.16147
 22
        4.40967
 32
       35.18000
 13
        1.31733
 23
        7.60639
 33
       35.18000
999
PLANTAX08:OFFICE:PLANTAX08:OFFICE_CEILING_1_0_8
  0
3DFACE
  8
PLANTAX08_OFFICE
 62
 15
 10
        1.31733
 20
        7.60639
 30
       35.18000
 11
        6.55893
 21
       -1.47965
 31
       35.18000
 12
       11.70058
 22
        1.48649
 32
       35.18000
 13
        7.07394
 23
        9.50657
 33
       35.18000
999
PLANTAX08:OFFICE:PLANTAX08:OFFICE_CEILING_1_0_9
  0
3DFACE
  8
PLANTAX08_OFFICE
 62
 15
 10
        6.52996
 20
       -1.49636
 30
       35.18000
 11
       11.84226
 21
      -10.70496
 31
       35.18000
 12
       15.83147
 22
       -8.40364
 32
       35.18000
 13
       15.83147
 23
       -8.40364
 33
       35.18000
  0
3DFACE
  8
PLANTAX08_OFFICE
 62
 15
 10
       15.83147
 20
       -8.40364
 30
       35.18000
 11
       12.87969
 21
       -0.55744
 31
       35.18000
 12
       11.70058
 22
        1.48649
 32
       35.18000
 13
       11.70058
 23
        1.48649
 33
       35.18000
  0
3DFACE
  8
PLANTAX08_OFFICE
 62
 15
 10
        6.52996
 20
       -1.49636
 30
       35.18000
 11
       15.83147
 21
       -8.40364
 31
       35.18000
 12
       11.70058
 22
        1.48649
 32
       35.18000
 13
       11.70058
 23
        1.48649
 33
       35.18000
999
PLANTAX08:OFFICE:PLANTAX08:OFFICE_CEILING_1_0_10
  0
3DFACE
  8
PLANTAX08_OFFICE
 62
 15
 10
        3.28699
 20
      -15.64036
 30
       35.18000
 11
        8.25023
 21
      -21.69534
 31
       35.18000
 12
       18.97769
 22
      -16.76670
 32
       35.18000
 13
       15.83147
 23
       -8.40364
 33
       35.18000
  0
ENDSEC
  0
EOF
